<svg width="25" height="26" viewBox="0 0 25 26" fill="none" xmlns="http://www.w3.org/2000/svg">
<rect x="0.5" y="1" width="24" height="24" rx="12" stroke="#007E5F"/>
<path d="M13.2812 9.875C13.2812 9.44353 12.9315 9.09375 12.5 9.09375C12.0685 9.09375 11.7188 9.44353 11.7188 9.875V12.2188H9.375C8.94353 12.2188 8.59375 12.5685 8.59375 13C8.59375 13.4315 8.94353 13.7812 9.375 13.7812H11.7188V16.125C11.7188 16.5565 12.0685 16.9062 12.5 16.9062C12.9315 16.9062 13.2812 16.5565 13.2812 16.125V13.7812H15.625C16.0565 13.7812 16.4062 13.4315 16.4062 13C16.4062 12.5685 16.0565 12.2188 15.625 12.2188H13.2812V9.875Z" fill="#007E5F"/>
</svg>
