<svg width="43" height="43" viewBox="0 0 43 43" fill="none" xmlns="http://www.w3.org/2000/svg">
<rect x="0.5" width="42" height="43" rx="21" fill="#E8F7F1"/>
<mask id="mask0_39_170" style="mask-type:alpha" maskUnits="userSpaceOnUse" x="7" y="7" width="29" height="29">
<rect x="7.5" y="7.5" width="28" height="28" fill="#D9D9D9"/>
</mask>
<g mask="url(#mask0_39_170)">
<path fill-rule="evenodd" clip-rule="evenodd" d="M13.0124 31.1542C13.343 31.4847 13.761 31.65 14.2666 31.65H28.7333C29.2388 31.65 29.6569 31.4847 29.9874 31.1542C30.318 30.8236 30.4833 30.4056 30.4833 29.9V15.4333C30.4833 14.9278 30.318 14.5097 29.9874 14.1792C29.6569 13.8486 29.2388 13.6833 28.7333 13.6833H26.3999V11H25.5833V13.6833H17.5333V11H16.5999V13.6833H14.2666C13.761 13.6833 13.343 13.8486 13.0124 14.1792C12.6819 14.5097 12.5166 14.9278 12.5166 15.4333V29.9C12.5166 30.4056 12.6819 30.8236 13.0124 31.1542ZM28.7333 30.8333H14.2666C14.0333 30.8333 13.8194 30.7361 13.6249 30.5417C13.4305 30.3472 13.3333 30.1333 13.3333 29.9V20.1H29.6666V29.9C29.6666 30.1333 29.5694 30.3472 29.3749 30.5417C29.1805 30.7361 28.9666 30.8333 28.7333 30.8333ZM29.6666 19.2833H13.3333V15.4333C13.3333 15.2 13.4305 14.9861 13.6249 14.7917C13.8194 14.5972 14.0333 14.5 14.2666 14.5H28.7333C28.9666 14.5 29.1805 14.5972 29.3749 14.7917C29.5694 14.9861 29.6666 15.2 29.6666 15.4333V19.2833Z" fill="#007E5F"/>
<path d="M20.2749 27.8L17.1833 24.7083L17.7666 24.125L20.2749 26.6333L25.2333 21.675L25.8166 22.2583L20.2749 27.8Z" fill="#007E5F"/>
</g>
</svg>
