<svg width="43" height="43" viewBox="0 0 43 43" fill="none" xmlns="http://www.w3.org/2000/svg">
<rect x="0.5" width="42" height="43" rx="21" fill="#FEEDEE"/>
<mask id="mask0_39_173" style="mask-type:alpha" maskUnits="userSpaceOnUse" x="7" y="7" width="29" height="29">
<rect x="7.5" y="7.5" width="28" height="28" fill="#D9D9D9"/>
</mask>
<g mask="url(#mask0_39_173)">
<path fill-rule="evenodd" clip-rule="evenodd" d="M13.0126 29.9875C13.3431 30.3181 13.7612 30.4833 14.2667 30.4833H28.7334C29.2389 30.4833 29.657 30.3181 29.9876 29.9875C30.3181 29.6569 30.4834 29.2389 30.4834 28.7333V14.2667C30.4834 13.7611 30.3181 13.3431 29.9876 13.0125C29.657 12.6819 29.2389 12.5167 28.7334 12.5167H14.2667C13.7612 12.5167 13.3431 12.6819 13.0126 13.0125C12.682 13.3431 12.5167 13.7611 12.5167 14.2667V17.5917H13.3334V14.2667C13.3334 14.0333 13.4306 13.8194 13.6251 13.625C13.8195 13.4306 14.0334 13.3333 14.2667 13.3333H28.7334C28.9667 13.3333 29.1806 13.4306 29.3751 13.625C29.5695 13.8194 29.6667 14.0333 29.6667 14.2667V28.7333C29.6667 28.9667 29.5695 29.1806 29.3751 29.375C29.1806 29.5694 28.9667 29.6667 28.7334 29.6667H14.2667C14.0334 29.6667 13.8195 29.5694 13.6251 29.375C13.4306 29.1806 13.3334 28.9667 13.3334 28.7333V25.4083H12.5167V28.7333C12.5167 29.2389 12.682 29.6569 13.0126 29.9875Z" fill="#F76169"/>
<path d="M20.2751 25.7L19.6917 25.1167L22.9001 21.9083H12.5167V21.0917H22.9001L19.6917 17.8833L20.2751 17.3L24.4751 21.5L20.2751 25.7Z" fill="#F76169"/>
</g>
</svg>
