<svg width="44" height="43" viewBox="0 0 44 43" fill="none" xmlns="http://www.w3.org/2000/svg">
<rect x="0.5" width="43" height="43" rx="21.5" fill="#EBF3FE"/>
<mask id="mask0_39_176" style="mask-type:alpha" maskUnits="userSpaceOnUse" x="7" y="7" width="30" height="29">
<rect x="7.5" y="7" width="29" height="29" fill="#D9D9D9"/>
</mask>
<g mask="url(#mask0_39_176)">
<path d="M23.6313 21.8021C23.0473 21.8021 22.5589 21.6057 22.1662 21.213C21.7735 20.8203 21.5771 20.3319 21.5771 19.7479C21.5771 19.1639 21.7735 18.6755 22.1662 18.2828C22.5589 17.8901 23.0473 17.6937 23.6313 17.6937C24.2153 17.6937 24.7037 17.8901 25.0964 18.2828C25.4891 18.6755 25.6854 19.1639 25.6854 19.7479C25.6854 20.3319 25.4891 20.8203 25.0964 21.213C24.7037 21.6057 24.2153 21.8021 23.6313 21.8021ZM16.4417 25.7292C15.9433 25.7292 15.5166 25.5516 15.1618 25.1966C14.8067 24.8417 14.6292 24.4151 14.6292 23.9167V15.5792C14.6292 15.0807 14.8067 14.654 15.1618 14.2989C15.5166 13.9441 15.9433 13.7667 16.4417 13.7667H30.8209C31.3193 13.7667 31.746 13.9441 32.1011 14.2989C32.4559 14.654 32.6334 15.0807 32.6334 15.5792V23.9167C32.6334 24.4151 32.4559 24.8417 32.1011 25.1966C31.746 25.5516 31.3193 25.7292 30.8209 25.7292H16.4417ZM17.2875 24.8833H29.975C29.975 24.3799 30.1526 23.9519 30.5076 23.5995C30.8625 23.247 31.2891 23.0708 31.7875 23.0708V16.425C31.2841 16.425 30.8561 16.2475 30.5037 15.8924C30.1512 15.5376 29.975 15.1109 29.975 14.6125H17.2875C17.2875 15.116 17.1101 15.5439 16.7553 15.8964C16.4002 16.2488 15.9735 16.425 15.475 16.425V23.0708C15.9785 23.0708 16.4065 23.2483 16.7589 23.6031C17.1113 23.9581 17.2875 24.3849 17.2875 24.8833ZM29.0688 28.9917H13.1792C12.6808 28.9917 12.2541 28.8141 11.8993 28.4591C11.5442 28.1042 11.3667 27.6776 11.3667 27.1792V17.3312H12.2125V27.1792C12.2125 27.4208 12.3132 27.6424 12.5146 27.8437C12.716 28.0451 12.9375 28.1458 13.1792 28.1458H29.0688V28.9917ZM16.4417 24.8833H15.475V14.6125H16.4417C16.1799 14.6125 15.9533 14.7082 15.762 14.8995C15.5707 15.0908 15.475 15.3174 15.475 15.5792V23.9167C15.475 24.1785 15.5707 24.405 15.762 24.5964C15.9533 24.7877 16.1799 24.8833 16.4417 24.8833Z" fill="#1677FF"/>
</g>
</svg>
