<svg width="52" height="52" viewBox="0 0 52 52" fill="none" xmlns="http://www.w3.org/2000/svg">
<path d="M18.2431 38.4829H15.0321C14.7666 38.4829 14.5511 38.3009 14.5511 38.0767C14.5511 37.8524 14.7666 37.6704 15.0321 37.6704H18.2431C18.5086 37.6704 18.7241 37.8524 18.7241 38.0767C18.7241 38.3009 18.5096 38.4829 18.2431 38.4829ZM38.4452 38.4829H24.3265C24.061 38.4829 23.8456 38.3009 23.8456 38.0767C23.8456 37.8524 24.061 37.6704 24.3265 37.6704H38.4452C38.7107 37.6704 38.9261 37.8524 38.9261 38.0767C38.9261 38.3009 38.7107 38.4829 38.4452 38.4829Z" fill="#007E5F"/>
<path d="M49.8352 38.4829H44.8593C44.6021 38.4829 44.3933 38.2688 44.3933 38.005C44.3933 37.7412 44.6021 37.5271 44.8593 37.5271H49.3692V34.6594H19.0796C18.8224 34.6594 18.6136 34.4453 18.6136 34.1815C18.6136 33.9176 18.8224 33.7035 19.0796 33.7035H49.8352C50.0924 33.7035 50.3011 33.9176 50.3011 34.1815V38.005C50.3011 38.2688 50.0924 38.4829 49.8352 38.4829ZM34.4574 26.0565H31.1954C30.9382 26.0565 30.7295 25.8424 30.7295 25.5785V22.7109C30.7295 22.4471 30.9382 22.2329 31.1954 22.2329H34.9234C35.1806 22.2329 35.3894 22.4471 35.3894 22.7109V23.6668C35.3894 23.9306 35.1806 24.1447 34.9234 24.1447C34.6662 24.1447 34.4574 23.9306 34.4574 23.6668V23.1888H31.6614V25.1006H34.4574C34.7146 25.1006 34.9234 25.3147 34.9234 25.5785C34.9234 25.8424 34.7146 26.0565 34.4574 26.0565Z" fill="#007E5F"/>
<path d="M34.3077 28.7329H30.5446C30.2849 28.7329 30.0742 28.5249 30.0742 28.2687V27.3401C30.0742 27.0838 30.2849 26.8758 30.5446 26.8758C30.8042 26.8758 31.015 27.0838 31.015 27.3401V27.8044H33.8373V25.9472H31.015C30.7553 25.9472 30.5446 25.7392 30.5446 25.4829C30.5446 25.2267 30.7553 25.0187 31.015 25.0187H34.3077C34.5674 25.0187 34.7781 25.2267 34.7781 25.4829V28.2687C34.7781 28.5249 34.5674 28.7329 34.3077 28.7329ZM27.7222 28.7329H23.959C23.6994 28.7329 23.4886 28.5249 23.4886 28.2687V27.8044C23.4886 27.5481 23.6994 27.3401 23.959 27.3401C24.2187 27.3401 24.4294 27.5481 24.4294 27.8044H27.2518V25.9472H26.311C26.0514 25.9472 25.8406 25.7392 25.8406 25.4829C25.8406 25.2267 26.0514 25.0187 26.311 25.0187H27.7222C27.9819 25.0187 28.1926 25.2267 28.1926 25.4829V28.2687C28.1926 28.5249 27.9819 28.7329 27.7222 28.7329ZM40.8933 24.0901C40.6336 24.0901 40.4229 23.8821 40.4229 23.6258V23.1615H37.6005V23.6258C37.6005 23.8821 37.3898 24.0901 37.1301 24.0901C36.8704 24.0901 36.6597 23.8821 36.6597 23.6258V22.6972C36.6597 22.4409 36.8704 22.2329 37.1301 22.2329H40.8933C41.1529 22.2329 41.3636 22.4409 41.3636 22.6972V23.6258C41.3636 23.8821 41.1529 24.0901 40.8933 24.0901Z" fill="#007E5F"/>
<path d="M39.2715 28.7329C39.0136 28.7329 38.8043 28.5145 38.8043 28.2454V22.8829C38.8043 22.6138 39.0136 22.3954 39.2715 22.3954C39.5293 22.3954 39.7386 22.6138 39.7386 22.8829V28.2454C39.7386 28.5145 39.5293 28.7329 39.2715 28.7329ZM27.5918 28.7329H24.3215C24.0636 28.7329 23.8543 28.5145 23.8543 28.2454V22.3954C23.8543 22.1263 24.0636 21.9079 24.3215 21.9079H28.059C28.3168 21.9079 28.5261 22.1263 28.5261 22.3954V23.8579C28.5261 24.127 28.3168 24.3454 28.059 24.3454C27.8011 24.3454 27.5918 24.127 27.5918 23.8579V22.8829H24.7886V27.7579H27.5918C27.8497 27.7579 28.059 27.9763 28.059 28.2454C28.059 28.5145 27.8497 28.7329 27.5918 28.7329ZM16.8465 38.4829H14.66C14.4021 38.4829 14.1928 38.2645 14.1928 37.9954C14.1928 37.7263 14.4021 37.5079 14.66 37.5079H16.3793V19.9579H10.7562C10.1348 19.9579 9.59571 20.3752 9.41538 20.9953L7.01497 29.2399C6.98974 29.3267 6.94115 29.4047 6.87574 29.4642L3.77642 32.2936C3.47275 32.5725 3.29802 32.9742 3.29802 33.3954V36.0454C3.29802 36.8518 3.92686 37.5079 4.69958 37.5079H8.75477C9.01266 37.5079 9.22196 37.7263 9.22196 37.9954C9.22196 38.2645 9.01266 38.4829 8.75477 38.4829H4.69958C3.41202 38.4829 2.36365 37.39 2.36365 36.0454V33.3954C2.36365 32.6924 2.65424 32.0245 3.1616 31.5614L6.16001 28.8226L8.52118 20.7116C8.82298 19.6781 9.72185 18.9829 10.7562 18.9829H16.8465C17.1043 18.9829 17.3136 19.2013 17.3136 19.4704V37.9954C17.3136 38.2645 17.1043 38.4829 16.8465 38.4829Z" fill="#007E5F"/>
<path d="M13.6954 29.9517H6.08905C5.82663 29.9517 5.61365 29.7372 5.61365 29.4729C5.61365 29.2086 5.82663 28.9941 6.08905 28.9941H13.22V23.2486H8.46604C8.20362 23.2486 7.99064 23.0341 7.99064 22.7698C7.99064 22.5055 8.20362 22.291 8.46604 22.291H13.6954C13.9578 22.291 14.1708 22.5055 14.1708 22.7698V29.4729C14.1708 29.7372 13.9578 29.9517 13.6954 29.9517ZM49.8257 34.7396H16.5478C16.2854 34.7396 16.0724 34.5251 16.0724 34.2608V17.0242C16.0724 16.7599 16.2854 16.5454 16.5478 16.5454H49.8257C50.0882 16.5454 50.3011 16.7599 50.3011 17.0242V34.2608C50.3011 34.5251 50.0882 34.7396 49.8257 34.7396ZM17.0232 33.782H49.3503V17.503H17.0232V33.782ZM21.7772 43.3579C19.6798 43.3579 17.974 41.64 17.974 39.5276C17.974 37.4151 19.6798 35.6972 21.7772 35.6972C23.8747 35.6972 25.5804 37.4151 25.5804 39.5276C25.5804 41.64 23.8747 43.3579 21.7772 43.3579ZM21.7772 36.6548C20.2046 36.6548 18.9248 37.9437 18.9248 39.5276C18.9248 41.1114 20.2046 42.4004 21.7772 42.4004C23.3498 42.4004 24.6296 41.1114 24.6296 39.5276C24.6296 37.9437 23.3498 36.6548 21.7772 36.6548ZM11.3184 43.3579C9.22097 43.3579 7.51524 41.64 7.51524 39.5276C7.51524 37.4151 9.22097 35.6972 11.3184 35.6972C13.4159 35.6972 15.1216 37.4151 15.1216 39.5276C15.1216 41.64 13.4159 43.3579 11.3184 43.3579ZM11.3184 36.6548C9.74581 36.6548 8.46604 37.9437 8.46604 39.5276C8.46604 41.1114 9.74581 42.4004 11.3184 42.4004C12.8911 42.4004 14.1708 41.1114 14.1708 39.5276C14.1708 37.9437 12.8911 36.6548 11.3184 36.6548Z" fill="#007E5F"/>
<path d="M10.8949 40.1079C11.1193 40.1079 11.3011 39.9261 11.3011 39.7017C11.3011 39.4773 11.1193 39.2954 10.8949 39.2954C10.6705 39.2954 10.4886 39.4773 10.4886 39.7017C10.4886 39.9261 10.6705 40.1079 10.8949 40.1079Z" fill="#007E5F"/>
<path d="M22.2699 40.1079C22.4943 40.1079 22.6761 39.9261 22.6761 39.7017C22.6761 39.4773 22.4943 39.2954 22.2699 39.2954C22.0455 39.2954 21.8636 39.4773 21.8636 39.7017C21.8636 39.9261 22.0455 40.1079 22.2699 40.1079Z" fill="#007E5F"/>
<path d="M40.9574 40.1079C41.1818 40.1079 41.3636 39.9261 41.3636 39.7017C41.3636 39.4773 41.1818 39.2954 40.9574 39.2954C40.733 39.2954 40.5511 39.4773 40.5511 39.7017C40.5511 39.9261 40.733 40.1079 40.9574 40.1079Z" fill="#007E5F"/>
<path d="M41.6816 43.3579C39.6165 43.3579 37.937 41.6761 37.937 39.6079C37.937 37.5398 39.6165 35.8579 41.6816 35.8579C43.7467 35.8579 45.4261 37.5398 45.4261 39.6079C45.4261 41.6761 43.7467 43.3579 41.6816 43.3579ZM41.6816 36.7954C40.1332 36.7954 38.8732 38.0573 38.8732 39.6079C38.8732 41.1586 40.1332 42.4204 41.6816 42.4204C43.23 42.4204 44.49 41.1586 44.49 39.6079C44.49 38.0573 43.23 36.7954 41.6816 36.7954ZM4.704 36.7954H2.83172C2.57334 36.7954 2.36365 36.5854 2.36365 36.3267V34.4517C2.36365 34.1929 2.57334 33.9829 2.83172 33.9829H4.704C5.47819 33.9829 6.10821 34.6139 6.10821 35.3892C6.10821 36.1645 5.47819 36.7954 4.704 36.7954ZM3.29979 35.8579H4.704C4.96238 35.8579 5.17207 35.647 5.17207 35.3892C5.17207 35.1314 4.96238 34.9204 4.704 34.9204H3.29979V35.8579ZM14.0654 32.1079H12.1931C11.9348 32.1079 11.7251 31.8979 11.7251 31.6392C11.7251 31.3804 11.9348 31.1704 12.1931 31.1704H14.0654C14.3238 31.1704 14.5335 31.3804 14.5335 31.6392C14.5335 31.8979 14.3238 32.1079 14.0654 32.1079Z" fill="#007E5F"/>
</svg>
