<svg width="44" height="43" viewBox="0 0 44 43" fill="none" xmlns="http://www.w3.org/2000/svg">
<rect x="0.5" width="43" height="43" rx="21.5" fill="#FEF4EA"/>
<mask id="mask0_39_179" style="mask-type:alpha" maskUnits="userSpaceOnUse" x="9" y="9" width="25" height="25">
<rect x="9.5" y="9.5" width="24" height="24" fill="#D9D9D9"/>
</mask>
<g mask="url(#mask0_39_179)">
<path d="M17.15 25.85H22.85V25.15H17.15V25.85ZM17.15 21.85H25.85V21.15H17.15V21.85ZM17.15 17.85H25.85V17.15H17.15V17.85ZM15.3 29.2C14.8667 29.2 14.5084 29.0584 14.225 28.775C13.9417 28.4917 13.8 28.1334 13.8 27.7V15.3C13.8 14.8667 13.9417 14.5084 14.225 14.225C14.5084 13.9417 14.8667 13.8 15.3 13.8H27.7C28.1334 13.8 28.4917 13.9417 28.775 14.225C29.0584 14.5084 29.2 14.8667 29.2 15.3V27.7C29.2 28.1334 29.0584 28.4917 28.775 28.775C28.4917 29.0584 28.1334 29.2 27.7 29.2H15.3ZM15.3 28.5H27.7C27.9 28.5 28.0834 28.4167 28.25 28.25C28.4167 28.0834 28.5 27.9 28.5 27.7V15.3C28.5 15.1 28.4167 14.9167 28.25 14.75C28.0834 14.5834 27.9 14.5 27.7 14.5H15.3C15.1 14.5 14.9167 14.5834 14.75 14.75C14.5834 14.9167 14.5 15.1 14.5 15.3V27.7C14.5 27.9 14.5834 28.0834 14.75 28.25C14.9167 28.4167 15.1 28.5 15.3 28.5Z" fill="#FD9C4A"/>
</g>
</svg>
