<svg width="43" height="43" viewBox="0 0 43 43" fill="none" xmlns="http://www.w3.org/2000/svg">
<rect width="43" height="43" rx="21.5" fill="#FEF3E7"/>
<mask id="mask0_109_115" style="mask-type:alpha" maskUnits="userSpaceOnUse" x="7" y="7" width="29" height="29">
<rect x="7" y="7" width="29" height="29" fill="#D9D9D9"/>
</mask>
<g mask="url(#mask0_109_115)">
<path d="M21.5 30.8948C23.7153 29.0018 25.5027 27.003 26.862 24.8985C28.2214 22.794 28.9011 20.9865 28.9011 19.4761C28.9011 17.2608 28.2013 15.4282 26.8016 13.9782C25.402 12.5282 23.6348 11.8032 21.5 11.8032C19.3653 11.8032 17.5981 12.5282 16.1985 13.9782C14.7988 15.4282 14.099 17.2608 14.099 19.4761C14.099 20.9865 14.7787 22.794 16.1381 24.8985C17.4974 27.003 19.2848 29.0018 21.5 30.8948ZM21.5 32.0428C18.7813 29.606 16.7271 27.3303 15.3375 25.2157C13.948 23.1011 13.2532 21.1879 13.2532 19.4761C13.2532 17.0594 14.0436 15.0405 15.6245 13.4193C17.2054 11.7981 19.1639 10.9875 21.5 10.9875C23.8362 10.9875 25.7947 11.7981 27.3756 13.4193C28.9565 15.0405 29.7469 17.0594 29.7469 19.4761C29.7469 21.1879 29.0521 23.1011 27.6625 25.2157C26.273 27.3303 24.2188 29.606 21.5 32.0428Z" fill="#AB6109"/>
</g>
<circle cx="21.5" cy="19.5" r="2.5" fill="#AB6109"/>
</svg>
