<svg width="44" height="44" viewBox="0 0 44 44" fill="none" xmlns="http://www.w3.org/2000/svg">
<path d="M41.8 30.8V28.6C41.8 28.4055 41.7227 28.219 41.5852 28.0815C41.4477 27.9439 41.2612 27.8667 41.0667 27.8667H38.3052C38.0736 27.1205 37.7734 26.3975 37.4082 25.7068L39.3626 23.7585C39.4308 23.6905 39.485 23.6096 39.522 23.5206C39.559 23.4316 39.5781 23.3362 39.5781 23.2398C39.5782 23.1434 39.5592 23.048 39.5224 22.9589C39.4855 22.8699 39.4315 22.789 39.3633 22.7208L35.2125 18.57C35.075 18.4325 34.8885 18.3552 34.6941 18.3552C34.5977 18.3552 34.5016 18.3743 34.4126 18.4113C34.3236 18.4483 34.2428 18.5025 34.1749 18.5707L32.2266 20.5251C31.5359 20.16 30.8128 19.8597 30.0667 19.6281V16.8667C30.0667 16.6722 29.9894 16.4856 29.8519 16.3481C29.7144 16.2106 29.5278 16.1333 29.3333 16.1333H27.1333V10.1925C27.7162 10.0765 28.2621 9.82053 28.7239 9.4466C29.1858 9.07266 29.5498 8.59202 29.7846 8.04609C30.0194 7.50016 30.1179 6.90533 30.0717 6.31286C30.0254 5.72038 29.8357 5.14805 29.5191 4.64519C29.2024 4.14232 28.7682 3.72401 28.2538 3.42631C27.7395 3.1286 27.1605 2.96044 26.5667 2.93631C25.9729 2.91218 25.3822 3.03281 24.8454 3.2878C24.3086 3.54279 23.8419 3.92449 23.4854 4.4H9.53333V3.66667C9.53333 3.47217 9.45607 3.28565 9.31855 3.14812C9.18102 3.0106 8.99449 2.93333 8.8 2.93333H7.33333V0.733333C7.33333 0.538841 7.25607 0.352315 7.11855 0.214788C6.98102 0.0772617 6.79449 0 6.6 0H2.93333C2.73884 0 2.55232 0.0772617 2.41479 0.214788C2.27726 0.352315 2.2 0.538841 2.2 0.733333V2.93333H0.733333C0.538841 2.93333 0.352315 3.0106 0.214788 3.14812C0.0772617 3.28565 0 3.47217 0 3.66667V9.53333C0 9.72783 0.0772617 9.91435 0.214788 10.0519C0.352315 10.1894 0.538841 10.2667 0.733333 10.2667H1.46667V43.2667C1.46667 43.4612 1.54393 43.6477 1.68146 43.7852C1.81898 43.9227 2.00551 44 2.2 44H7.33333C7.52783 44 7.71435 43.9227 7.85188 43.7852C7.98941 43.6477 8.06667 43.4612 8.06667 43.2667V10.2667H8.8C8.99449 10.2667 9.18102 10.1894 9.31855 10.0519C9.45607 9.91435 9.53333 9.72783 9.53333 9.53333V8.8H23.4854C24.0187 9.51426 24.7943 10.0094 25.6667 10.1925V16.1333H23.4667C23.2722 16.1333 23.0856 16.2106 22.9481 16.3481C22.8106 16.4856 22.7333 16.6722 22.7333 16.8667V19.6281C21.9872 19.8597 21.2641 20.16 20.5734 20.5251L18.6252 18.5708C18.5572 18.5025 18.4764 18.4483 18.3874 18.4113C18.2985 18.3743 18.2031 18.3552 18.1067 18.3552C17.9122 18.3553 17.725 18.4325 17.5875 18.5701L13.4367 22.7209C13.3685 22.789 13.3145 22.8699 13.2776 22.959C13.2408 23.048 13.2218 23.1435 13.2219 23.2398C13.222 23.3362 13.241 23.4316 13.278 23.5206C13.315 23.6097 13.3692 23.6905 13.4374 23.7585L15.3918 25.7068C15.0267 26.3975 14.7264 27.1205 14.4948 27.8667H11.7333C11.5388 27.8667 11.3523 27.9439 11.2148 28.0815C11.0773 28.219 11 28.4055 11 28.6V30.9351C10.5723 31.0858 10.2017 31.3652 9.93906 31.7349C9.67646 32.1046 9.53473 32.5465 9.53333 33V38.8667C9.53473 39.3201 9.67646 39.7621 9.93907 40.1318C10.2017 40.5015 10.5723 40.7808 11 40.9315V43.2667C11 43.4612 11.0773 43.6477 11.2148 43.7852C11.3523 43.9227 11.5388 44 11.7333 44H16.1333C16.3278 44 16.5144 43.9227 16.6519 43.7852C16.7894 43.6477 16.8667 43.4612 16.8667 43.2667V41.0667H36.6667V43.2667C36.6667 43.4612 36.7439 43.6477 36.8815 43.7852C37.019 43.9227 37.2055 44 37.4 44H41.8C41.9945 44 42.181 43.9227 42.3185 43.7852C42.4561 43.6477 42.5333 43.4612 42.5333 43.2667V40.9315C42.9611 40.7809 43.3317 40.5015 43.5943 40.1318C43.8569 39.7621 43.9986 39.3202 44 38.8667V33C43.9994 32.4167 43.7674 31.8575 43.3549 31.4451C42.9425 31.0326 42.3833 30.8006 41.8 30.8ZM3.66667 1.46667H5.86667V2.93333H3.66667V1.46667ZM6.6 42.5333H2.93333V39.9373L6.6 36.7945V42.5333ZM2.93333 38.0055V32.3945L6.20648 35.2L2.93333 38.0055ZM6.6 33.6055L3.32685 30.8L6.6 27.9945V33.6055ZM2.93333 29.2055V23.5945L6.20648 26.4L2.93333 29.2055ZM6.6 24.8055L3.32685 22L6.6 19.1945V24.8055ZM2.93333 20.4055V14.7945L6.20648 17.6L2.93333 20.4055ZM6.6 16.0055L2.93333 12.8627V10.2667H6.6V16.0055ZM8.06667 5.13333V8.8H1.46667V4.4H8.06667V5.13333ZM22.8075 7.33333H9.53333V5.86667H22.8075C22.7086 6.35056 22.7086 6.84944 22.8075 7.33333ZM24.2 6.6C24.2 6.16488 24.329 5.73953 24.5708 5.37775C24.8125 5.01596 25.1561 4.73398 25.5581 4.56746C25.9601 4.40095 26.4024 4.35738 26.8292 4.44227C27.256 4.52716 27.648 4.73669 27.9556 5.04436C28.2633 5.35204 28.4728 5.74404 28.5577 6.1708C28.6426 6.59756 28.599 7.03991 28.4325 7.4419C28.266 7.8439 27.984 8.18749 27.6223 8.42923C27.2605 8.67097 26.8351 8.8 26.4 8.8C25.8167 8.79936 25.2575 8.56737 24.8451 8.15493C24.4326 7.74249 24.2006 7.18328 24.2 6.6ZM12.4667 29.3333H15.048C15.2103 29.3333 15.368 29.2794 15.4965 29.1802C15.6249 29.0809 15.7168 28.9419 15.7577 28.7848C16.0179 27.79 16.414 26.8359 16.9347 25.9492C17.0169 25.8091 17.0502 25.6457 17.0294 25.4847C17.0086 25.3236 16.9348 25.174 16.8198 25.0594L14.9932 23.2386L18.1053 20.1266L19.926 21.9531C20.0408 22.0679 20.1903 22.1415 20.3513 22.1623C20.5123 22.1831 20.6757 22.1499 20.8159 22.068C21.7025 21.5473 22.6567 21.1512 23.6514 20.891C23.8085 20.8501 23.9475 20.7582 24.0468 20.6298C24.1461 20.5014 24.2 20.3436 24.2 20.1813V17.6H28.6V20.1813C28.6 20.3436 28.6539 20.5014 28.7532 20.6298C28.8524 20.7582 28.9915 20.8501 29.1485 20.891C30.1433 21.1513 31.0975 21.5473 31.9841 22.068C32.1242 22.1502 32.2876 22.1835 32.4487 22.1627C32.6097 22.1419 32.7593 22.0682 32.8739 21.9531L34.6947 20.1266L37.8068 23.2386L35.9803 25.0594C35.8652 25.174 35.7915 25.3236 35.7707 25.4846C35.7499 25.6457 35.7832 25.8091 35.8653 25.9492C36.3861 26.8358 36.7821 27.79 37.0423 28.7848C37.0833 28.9418 37.1751 29.0809 37.3036 29.1801C37.432 29.2794 37.5897 29.3333 37.752 29.3333H40.3333V30.8H35.1628C34.9806 28.6012 33.9784 26.5513 32.3552 25.0571C30.732 23.5628 28.6063 22.7334 26.4 22.7334C24.1937 22.7334 22.068 23.5628 20.4448 25.0571C18.8216 26.5513 17.8194 28.6012 17.6371 30.8H12.4667V29.3333ZM33.6962 30.8H19.1038C19.2855 28.9912 20.1326 27.3143 21.4808 26.0948C22.829 24.8753 24.5821 24.2 26.4 24.2C28.2179 24.2 29.971 24.8753 31.3192 26.0948C32.6674 27.3143 33.5145 28.9912 33.6962 30.8ZM11.308 39.4477C11.2142 39.3822 11.1374 39.2954 11.0838 39.1944C11.0303 39.0933 11.0015 38.981 11 38.8667V33C11.0003 32.8056 11.0776 32.6192 11.2151 32.4817C11.3525 32.3443 11.5389 32.2669 11.7333 32.2667H14.3001L11.308 39.4477ZM15.4 42.5333H12.4667V41.0667H15.4V42.5333ZM16.3779 39.6H12.8332L15.8888 32.2667H19.4335L16.3779 39.6ZM17.9665 39.6L21.0221 32.2667H24.5668L21.5112 39.6H17.9665ZM23.0999 39.6L26.1554 32.2667H29.7001L26.6446 39.6H23.0999ZM28.2332 39.6L31.2888 32.2667H35.5668L32.5112 39.6H28.2332ZM37.4 39.6H34.0999L37.1554 32.2667H40.7001L37.6446 39.6H37.4ZM41.0667 42.5333H38.1333V41.0667H41.0667V42.5333ZM42.5333 38.8667C42.5331 39.0611 42.4557 39.2475 42.3183 39.3849C42.1808 39.5224 41.9944 39.5997 41.8 39.6H39.2332L42.2253 32.419C42.3191 32.4844 42.3959 32.5713 42.4495 32.6723C42.503 32.7733 42.5318 32.8857 42.5333 33V38.8667Z" fill="#007E5F"/>
</svg>
