<svg width="44" height="44" viewBox="0 0 44 44" fill="none" xmlns="http://www.w3.org/2000/svg">
<g clip-path="url(#clip0_1011_5134)">
<path d="M11.5803 35.5887H2.05794C1.54644 35.5887 1.37502 35.5887 1.37502 34.6619V32.4573C1.37502 32.275 1.30259 32.1001 1.17366 31.9712C1.04472 31.8423 0.869856 31.7698 0.68752 31.7698C0.505184 31.7698 0.330315 31.8423 0.201384 31.9712C0.0724528 32.1001 1.99564e-05 32.275 1.99564e-05 32.4573V34.6619C-0.0517991 34.9547 -0.0364485 35.2554 0.0449137 35.5414C0.126276 35.8274 0.271525 36.0912 0.469702 36.3128C0.667879 36.5345 0.913808 36.7082 1.18894 36.821C1.46406 36.9337 1.7612 36.9825 2.05794 36.9637H11.5803C11.7626 36.9637 11.9375 36.8912 12.0664 36.7623C12.1953 36.6334 12.2678 36.4585 12.2678 36.2762C12.2678 36.0938 12.1953 35.919 12.0664 35.79C11.9375 35.6611 11.7626 35.5887 11.5803 35.5887ZM0.68752 30.2931C0.869856 30.2931 1.04472 30.2206 1.17366 30.0917C1.30259 29.9628 1.37502 29.7879 1.37502 29.6056V6.87958L22.1834 6.91533V18.3782C22.1834 18.5606 22.2558 18.7354 22.3847 18.8644C22.5137 18.9933 22.6885 19.0657 22.8709 19.0657C23.0532 19.0657 23.2281 18.9933 23.357 18.8644C23.4859 18.7354 23.5584 18.5606 23.5584 18.3782V6.91533C23.5618 6.54351 23.4174 6.18556 23.157 5.92015C22.8966 5.65475 22.5414 5.50362 22.1696 5.49999H1.95802L5.10219 2.84166H25.0855C25.3773 2.84166 25.6571 2.95755 25.8633 3.16384C26.0696 3.37013 26.1855 3.64992 26.1855 3.94166V17.8933C26.1855 18.0757 26.258 18.2505 26.3869 18.3795C26.5158 18.5084 26.6907 18.5808 26.873 18.5808C27.0554 18.5808 27.2302 18.5084 27.3592 18.3795C27.4881 18.2505 27.5605 18.0757 27.5605 17.8933V3.94166C27.5605 3.28525 27.2998 2.65572 26.8356 2.19157C26.3715 1.72742 25.7419 1.46666 25.0855 1.46666H4.85102C4.6886 1.46656 4.5314 1.52405 4.40735 1.62891L0.323603 5.08841C0.22706 5.18743 0.151596 5.30499 0.10177 5.43399C0.0379472 5.53651 0.00280816 5.65427 1.99564e-05 5.77499V29.6083C0.000747399 29.7902 0.0735012 29.9643 0.202354 30.0927C0.331206 30.221 0.505659 30.2931 0.68752 30.2931Z" fill="#007E5F"/>
<path d="M24.8802 18.1326C25.0625 18.1326 25.2374 18.0602 25.3663 17.9312C25.4952 17.8023 25.5677 17.6274 25.5677 17.4451V5.53667C25.5669 4.99514 25.3517 4.47594 24.9692 4.09268C24.5866 3.70941 24.0678 3.49329 23.5262 3.49159L6.34241 3.45584C6.16007 3.45584 5.9852 3.52827 5.85627 3.65721C5.72734 3.78614 5.65491 3.961 5.65491 4.14334C5.65491 4.32568 5.72734 4.50055 5.85627 4.62948C5.9852 4.75841 6.16007 4.83084 6.34241 4.83084L23.5272 4.86659C23.7046 4.86708 23.8747 4.93786 24.0001 5.06344C24.1255 5.18903 24.1961 5.35919 24.1963 5.53667V17.4451C24.1963 17.6268 24.2683 17.8011 24.3964 17.9299C24.5245 18.0588 24.6985 18.1316 24.8802 18.1326ZM34.3493 31.2208C34.167 31.2208 33.9921 31.2932 33.8632 31.4221C33.7343 31.5511 33.6618 31.7259 33.6618 31.9083V37.6246C33.6631 37.7588 33.6316 37.8912 33.5702 38.0105C33.1833 38.7484 31.35 41.1583 24.0167 41.1583C16.6833 41.1583 14.85 38.7512 14.4586 38.0123C14.3972 37.8933 14.3658 37.7612 14.3669 37.6273V32.1998C14.3669 32.0174 14.2945 31.8426 14.1655 31.7136C14.0366 31.5847 13.8617 31.5123 13.6794 31.5123C13.4971 31.5123 13.3222 31.5847 13.1933 31.7136C13.0643 31.8426 12.9919 32.0174 12.9919 32.1998V37.6246C12.99 37.9813 13.0743 38.3332 13.2376 38.6503C13.8554 39.8173 16.1333 42.5333 24.0167 42.5333C31.9 42.5333 34.177 39.82 34.7902 38.654C34.9549 38.337 35.0398 37.9846 35.0377 37.6273V31.9083C35.0377 31.8179 35.0199 31.7284 34.9853 31.645C34.9507 31.5615 34.9 31.4857 34.8361 31.4218C34.7721 31.3579 34.6962 31.3073 34.6127 31.2728C34.5292 31.2383 34.4397 31.2206 34.3493 31.2208Z" fill="#007E5F"/>
<path d="M43.5297 25.3358L25.3412 19.2601C25.2024 19.2134 25.052 19.2134 24.9132 19.2601L4.42474 25.8289C4.28793 25.874 4.1687 25.9607 4.08381 26.0771C3.99893 26.1935 3.95267 26.3335 3.95156 26.4775C3.95045 26.6215 3.99453 26.7623 4.07761 26.8799C4.16068 26.9976 4.27856 27.0862 4.41466 27.1333L23.573 33.6087C23.6439 33.6326 23.7182 33.645 23.793 33.6453C23.8717 33.6452 23.9499 33.6316 24.024 33.605L38.0866 28.5835V31.8835C37.6125 32.0266 37.197 32.3182 36.9011 32.7152C36.6052 33.1123 36.4446 33.5938 36.443 34.089V35.475C36.443 36.0896 36.6871 36.679 37.1217 37.1136C37.5563 37.5482 38.1457 37.7923 38.7603 37.7923C39.3749 37.7923 39.9643 37.5482 40.3989 37.1136C40.8335 36.679 41.0777 36.0896 41.0777 35.475V34.0872C41.0764 33.5965 40.9191 33.1189 40.6286 32.7234C40.3381 32.328 39.9294 32.0351 39.4616 31.8872V28.0922L43.5417 26.6356C43.6764 26.5875 43.7928 26.4986 43.8747 26.3812C43.9565 26.2638 43.9997 26.1239 43.9982 25.9808C43.9967 25.8377 43.9505 25.6986 43.8662 25.583C43.7819 25.4674 43.6637 25.381 43.5279 25.3358H43.5297ZM39.699 35.475C39.699 35.7249 39.5997 35.9646 39.423 36.1413C39.2463 36.3181 39.0066 36.4173 38.7567 36.4173C38.5067 36.4173 38.267 36.3181 38.0903 36.1413C37.9136 35.9646 37.8143 35.7249 37.8143 35.475V34.0872C37.8143 33.9634 37.8387 33.8409 37.8861 33.7266C37.9334 33.6122 38.0028 33.5083 38.0903 33.4208C38.1778 33.3333 38.2817 33.2639 38.396 33.2166C38.5104 33.1692 38.6329 33.1448 38.7567 33.1448C38.8804 33.1448 39.0029 33.1692 39.1173 33.2166C39.2316 33.2639 39.3355 33.3333 39.423 33.4208C39.5105 33.5083 39.5799 33.6122 39.6273 33.7266C39.6746 33.8409 39.699 33.9634 39.699 34.0872V35.475ZM38.676 26.9133L24.0891 25.3394C23.9982 25.3274 23.9058 25.3338 23.8174 25.358C23.729 25.3822 23.6463 25.4239 23.5742 25.4806C23.5021 25.5373 23.4421 25.6078 23.3977 25.688C23.3533 25.7682 23.3254 25.8565 23.3156 25.9477C23.3058 26.0388 23.3144 26.131 23.3408 26.2188C23.3671 26.3066 23.4108 26.3883 23.4692 26.459C23.5276 26.5296 23.5996 26.5879 23.6808 26.6304C23.7621 26.6728 23.851 26.6986 23.9424 26.7062L35.7023 27.9748L23.7857 32.2318L6.83282 26.5008L25.1185 20.6342L41.2069 26.0086L38.676 26.9133Z" fill="#007E5F"/>
</g>
<defs>
<clipPath id="clip0_1011_5134">
<rect width="44" height="44" fill="white"/>
</clipPath>
</defs>
</svg>
