<svg width="60" height="60" viewBox="0 0 60 60" fill="none" xmlns="http://www.w3.org/2000/svg">
<g clip-path="url(#clip0_20_83)">
<path d="M25.5469 12.8906H27.3633V14.707C27.3639 15.2507 27.5802 15.772 27.9646 16.1565C28.3491 16.5409 28.8704 16.7572 29.4141 16.7578H30.5859C31.1296 16.7572 31.6509 16.5409 32.0354 16.1565C32.4198 15.772 32.6361 15.2507 32.6367 14.707V12.8906H34.4531C34.9968 12.89 35.5181 12.6737 35.9026 12.2893C36.287 11.9048 36.5033 11.3836 36.5039 10.8398V9.66797C36.5033 9.12426 36.287 8.60299 35.9026 8.21853C35.5181 7.83407 34.9968 7.61781 34.4531 7.61719H32.6367V5.80078C32.6361 5.25707 32.4198 4.73581 32.0354 4.35135C31.6509 3.96688 31.1296 3.75062 30.5859 3.75H29.4141C28.8704 3.75062 28.3491 3.96688 27.9646 4.35135C27.5802 4.73581 27.3639 5.25707 27.3633 5.80078V7.61719H25.5469C25.0032 7.61781 24.4819 7.83407 24.0974 8.21853C23.713 8.60299 23.4967 9.12426 23.4961 9.66797V10.8398C23.4967 11.3836 23.713 11.9048 24.0974 12.2893C24.4819 12.6737 25.0032 12.89 25.5469 12.8906ZM25.2539 9.66797C25.254 9.5903 25.2849 9.51583 25.3398 9.46091C25.3947 9.40599 25.4692 9.37509 25.5469 9.375H28.2422C28.4753 9.375 28.6988 9.2824 28.8637 9.11757C29.0285 8.95275 29.1211 8.72919 29.1211 8.49609V5.80078C29.1212 5.72311 29.1521 5.64865 29.207 5.59372C29.2619 5.5388 29.3364 5.50791 29.4141 5.50781H30.5859C30.6636 5.50791 30.7381 5.5388 30.793 5.59372C30.8479 5.64865 30.8788 5.72311 30.8789 5.80078V8.49609C30.8789 8.72919 30.9715 8.95275 31.1363 9.11757C31.3012 9.2824 31.5247 9.375 31.7578 9.375H34.4531C34.5308 9.37509 34.6053 9.40599 34.6602 9.46091C34.7151 9.51583 34.746 9.5903 34.7461 9.66797V10.8398C34.746 10.9175 34.7151 10.992 34.6602 11.0469C34.6053 11.1018 34.5308 11.1327 34.4531 11.1328H31.7578C31.5247 11.1328 31.3012 11.2254 31.1363 11.3902C30.9715 11.5551 30.8789 11.7786 30.8789 12.0117V14.707C30.8788 14.7847 30.8479 14.8592 30.793 14.9141C30.7381 14.969 30.6636 14.9999 30.5859 15H29.4141C29.3364 14.9999 29.2619 14.969 29.207 14.9141C29.1521 14.8592 29.1212 14.7847 29.1211 14.707V12.0117C29.1211 11.7786 29.0285 11.5551 28.8637 11.3902C28.6988 11.2254 28.4753 11.1328 28.2422 11.1328H25.5469C25.4692 11.1327 25.3947 11.1018 25.3398 11.0469C25.2849 10.992 25.254 10.9175 25.2539 10.8398V9.66797ZM55.6055 16.4062H45.9375V15.5273C45.9362 14.3622 45.4728 13.2452 44.6489 12.4214C43.8251 11.5975 42.7081 11.1341 41.543 11.1328H40.0934C40.118 10.843 40.1311 10.55 40.1311 10.2539C40.1311 4.59984 35.5862 0 30 0C24.4138 0 19.8689 4.59984 19.8689 10.2539C19.8689 10.55 19.8821 10.843 19.9065 11.1328H18.457C17.2919 11.1341 16.1749 11.5975 15.3511 12.4214C14.5272 13.2452 14.0638 14.3622 14.0625 15.5273V16.4062H4.39453C3.22943 16.4076 2.11242 16.871 1.28857 17.6948C0.464715 18.5187 0.00130273 19.6357 0 20.8008L0 55.6055C0.00130273 56.7706 0.464715 57.8876 1.28857 58.7114C2.11242 59.5353 3.22943 59.9987 4.39453 60H55.6055C56.7706 59.9987 57.8876 59.5353 58.7114 58.7114C59.5353 57.8876 59.9987 56.7706 60 55.6055V20.8008C59.9987 19.6357 59.5353 18.5187 58.7114 17.6948C57.8876 16.871 56.7706 16.4076 55.6055 16.4062ZM14.0625 40.3125H7.03125V37.1484H14.0625V40.3125ZM14.0625 30.1172H7.03125V26.9531H14.0625V30.1172ZM14.0625 25.1953H6.85547C6.43603 25.1958 6.03391 25.3626 5.73732 25.6592C5.44073 25.9558 5.2739 26.3579 5.27344 26.7773V30.293C5.2739 30.7124 5.44073 31.1145 5.73732 31.4111C6.03391 31.7077 6.43603 31.8745 6.85547 31.875H14.0625V35.3906H6.85547C6.43603 35.3911 6.03391 35.5579 5.73732 35.8545C5.44073 36.1511 5.2739 36.5532 5.27344 36.9727V40.4883C5.2739 40.9077 5.44073 41.3098 5.73732 41.6064C6.03391 41.903 6.43603 42.0698 6.85547 42.0703H14.0625V58.2422H4.39453C3.69547 58.2414 3.02526 57.9634 2.53095 57.4691C2.03663 56.9747 1.75859 56.3045 1.75781 55.6055V20.8008C1.75859 20.1017 2.03663 19.4315 2.53095 18.9372C3.02526 18.4429 3.69547 18.1648 4.39453 18.1641H14.0625V25.1953ZM30 1.75781C34.617 1.75781 38.3733 5.5691 38.3733 10.2539C38.3733 14.9387 34.617 18.75 30 18.75C25.383 18.75 21.6267 14.9387 21.6267 10.2539C21.6267 5.5691 25.383 1.75781 30 1.75781ZM33.9844 58.2422H26.0156V48.2227C26.0159 47.9896 26.1086 47.7662 26.2733 47.6014C26.4381 47.4367 26.6615 47.344 26.8945 47.3438H33.1055C33.3385 47.344 33.5619 47.4367 33.7267 47.6014C33.8914 47.7662 33.9841 47.9896 33.9844 48.2227V58.2422ZM44.1797 58.2422H35.7422V48.2227C35.7414 47.5236 35.4634 46.8534 34.9691 46.3591C34.4747 45.8648 33.8045 45.5867 33.1055 45.5859H26.8945C26.1955 45.5867 25.5253 45.8648 25.0309 46.3591C24.5366 46.8534 24.2586 47.5236 24.2578 48.2227V58.2422H15.8203V15.5273C15.8211 14.8283 16.0991 14.1581 16.5934 13.6638C17.0878 13.1694 17.758 12.8914 18.457 12.8906H20.2091C21.3618 17.2711 25.3141 20.5078 30 20.5078C34.6859 20.5078 38.6382 17.2711 39.7909 12.8906H41.543C42.242 12.8914 42.9122 13.1694 43.4066 13.6638C43.9009 14.1581 44.1789 14.8283 44.1797 15.5273V58.2422ZM45.9375 26.9531H52.9688V30.1172H45.9375V26.9531ZM45.9375 37.1484H52.9688V40.3125H45.9375V37.1484ZM58.2422 55.6055C58.2414 56.3045 57.9634 56.9747 57.4691 57.4691C56.9747 57.9634 56.3045 58.2414 55.6055 58.2422H45.9375V42.0703H53.1445C53.564 42.0698 53.9661 41.903 54.2627 41.6064C54.5593 41.3098 54.7261 40.9077 54.7266 40.4883V36.9727C54.7261 36.5532 54.5593 36.1511 54.2627 35.8545C53.9661 35.5579 53.564 35.3911 53.1445 35.3906H45.9375V31.875H53.1445C53.564 31.8745 53.9661 31.7077 54.2627 31.4111C54.5593 31.1145 54.7261 30.7124 54.7266 30.293V26.7773C54.7261 26.3579 54.5593 25.9558 54.2627 25.6592C53.9661 25.3626 53.564 25.1958 53.1445 25.1953H45.9375V18.1641H55.6055C56.3045 18.1648 56.9747 18.4429 57.4691 18.9372C57.9634 19.4315 58.2414 20.1017 58.2422 20.8008V55.6055ZM39.082 25.1953H32.4609C32.0415 25.1958 31.6394 25.3626 31.3428 25.6592C31.0462 25.9558 30.8794 26.3579 30.8789 26.7773V30.293C30.8794 30.7124 31.0462 31.1145 31.3428 31.4111C31.6394 31.7077 32.0415 31.8745 32.4609 31.875H39.082C39.5015 31.8745 39.9036 31.7077 40.2002 31.4111C40.4968 31.1145 40.6636 30.7124 40.6641 30.293V26.7773C40.6636 26.3579 40.4968 25.9558 40.2002 25.6592C39.9036 25.3626 39.5015 25.1958 39.082 25.1953ZM38.9062 30.1172H32.6367V26.9531H38.9062V30.1172ZM39.082 35.3906H32.4609C32.0415 35.3911 31.6394 35.5579 31.3428 35.8545C31.0462 36.1511 30.8794 36.5532 30.8789 36.9727V40.4883C30.8794 40.9077 31.0462 41.3098 31.3428 41.6064C31.6394 41.903 32.0415 42.0698 32.4609 42.0703H39.082C39.5015 42.0698 39.9036 41.903 40.2002 41.6064C40.4968 41.3098 40.6636 40.9077 40.6641 40.4883V36.9727C40.6636 36.5532 40.4968 36.1511 40.2002 35.8545C39.9036 35.5579 39.5015 35.3911 39.082 35.3906ZM38.9062 40.3125H32.6367V37.1484H38.9062V40.3125ZM27.5391 35.3906H20.918C20.4985 35.3911 20.0964 35.5579 19.7998 35.8545C19.5032 36.1511 19.3364 36.5532 19.3359 36.9727V40.4883C19.3364 40.9077 19.5032 41.3098 19.7998 41.6064C20.0964 41.903 20.4985 42.0698 20.918 42.0703H27.5391C27.9585 42.0698 28.3606 41.903 28.6572 41.6064C28.9538 41.3098 29.1206 40.9077 29.1211 40.4883V36.9727C29.1206 36.5532 28.9538 36.1511 28.6572 35.8545C28.3606 35.5579 27.9585 35.3911 27.5391 35.3906ZM27.3633 40.3125H21.0938V37.1484H27.3633V40.3125ZM27.5391 25.1953H20.918C20.4985 25.1958 20.0964 25.3626 19.7998 25.6592C19.5032 25.9558 19.3364 26.3579 19.3359 26.7773V30.293C19.3364 30.7124 19.5032 31.1145 19.7998 31.4111C20.0964 31.7077 20.4985 31.8745 20.918 31.875H27.5391C27.9585 31.8745 28.3606 31.7077 28.6572 31.4111C28.9538 31.1145 29.1206 30.7124 29.1211 30.293V26.7773C29.1206 26.3579 28.9538 25.9558 28.6572 25.6592C28.3606 25.3626 27.9585 25.1958 27.5391 25.1953ZM27.3633 30.1172H21.0938V26.9531H27.3633V30.1172Z" fill="#007E5F"/>
</g>
<defs>
<clipPath id="clip0_20_83">
<rect width="60" height="60" fill="white"/>
</clipPath>
</defs>
</svg>
