<svg width="60" height="60" viewBox="0 0 60 60" fill="none" xmlns="http://www.w3.org/2000/svg">
<g clip-path="url(#clip0_20_90)">
<path d="M54.5859 30.6387H48.2637V26.0555C48.2631 25.3564 47.9851 24.6861 47.4907 24.1917C46.9964 23.6974 46.3261 23.4194 45.627 23.4187H34.8328C34.5317 23.4185 34.2328 23.47 33.9492 23.5711V21.2988C34.0371 21.2988 34.125 21.3047 34.2129 21.3047C36.1305 21.3043 38.0049 20.7354 39.5992 19.6699C41.1936 18.6044 42.4362 17.0901 43.17 15.3185C43.9039 13.5469 44.096 11.5975 43.7222 9.71671C43.3483 7.83592 42.4252 6.1082 41.0695 4.75195C39.4571 3.14153 37.3292 2.15024 35.059 1.95196C32.7888 1.75367 30.5212 2.36106 28.6541 3.66757C26.7869 4.97409 25.4394 6.8963 24.8479 9.09706C24.2564 11.2978 24.4586 13.6366 25.4191 15.7031H21.7148V5.37422H24.5742C24.8073 5.37422 25.0309 5.28162 25.1957 5.11679C25.3605 4.95197 25.4531 4.72841 25.4531 4.49531V2.63672C25.4525 1.93761 25.1745 1.26731 24.6802 0.772962C24.1858 0.278616 23.5155 0.000620605 22.8164 0L12.3867 0C11.6877 0.000930162 11.0176 0.279025 10.5233 0.773304C10.029 1.26758 9.75093 1.9377 9.75 2.63672V4.49531C9.75 4.72841 9.8426 4.95197 10.0074 5.11679C10.1723 5.28162 10.3958 5.37422 10.6289 5.37422H13.2539V15.7031H5.41406C4.24894 15.7044 3.1319 16.1678 2.30803 16.9916C1.48416 17.8155 1.02077 18.9325 1.01953 20.0977V52.0898C1.01935 53.2154 1.45051 54.2983 2.22433 55.1157C2.99814 55.9331 4.05578 56.4229 5.17969 56.4844V57.3691C5.17969 58.0684 5.45748 58.7391 5.95196 59.2336C6.44644 59.7281 7.1171 60.0059 7.81641 60.0059C8.51571 60.0059 9.18637 59.7281 9.68085 59.2336C10.1753 58.7391 10.4531 58.0684 10.4531 57.3691V56.4844H21.5684C21.772 57.4763 22.3114 58.3676 23.0957 59.0081C23.8801 59.6485 24.8612 59.9988 25.8738 60H54.5848C55.7499 59.9988 56.8669 59.5354 57.6908 58.7115C58.5147 57.8876 58.9781 56.7706 58.9793 55.6055V35.0391C58.9793 33.8732 58.5167 32.755 57.6929 31.93C56.8692 31.105 55.7518 30.6405 54.5859 30.6387ZM49.6969 32.3965H51.3738V42.3574H49.6969V32.3965ZM33.9539 26.0555C33.9539 25.8224 34.0465 25.5988 34.2113 25.434C34.3762 25.2692 34.5997 25.1766 34.8328 25.1766H45.627C45.8601 25.1766 46.0836 25.2692 46.2484 25.434C46.4133 25.5988 46.5059 25.8224 46.5059 26.0555V30.6258H44.748V27.8133C44.7482 27.6978 44.7256 27.5835 44.6815 27.4768C44.6373 27.3701 44.5726 27.2731 44.491 27.1915C44.4093 27.1098 44.3124 27.0451 44.2057 27.001C44.099 26.9568 43.9846 26.9342 43.8691 26.9344H36.5906C36.4752 26.9342 36.3608 26.9568 36.2541 27.001C36.1474 27.0451 36.0504 27.1098 35.9688 27.1915C35.8872 27.2731 35.8224 27.3701 35.7783 27.4768C35.7342 27.5835 35.7116 27.6978 35.7117 27.8133V30.6258H33.9539V26.0555ZM42.9902 28.6922V30.6305H37.4695V28.6922H42.9902ZM28.5938 5.99414C29.8915 4.69407 31.5998 3.88421 33.4277 3.70255C35.2556 3.52089 37.09 3.97867 38.6182 4.9979C40.1464 6.01712 41.2739 7.53472 41.8086 9.29209C42.3432 11.0495 42.252 12.9379 41.5504 14.6355C40.8488 16.3331 39.5803 17.735 37.9609 18.6022C36.3416 19.4693 34.4717 19.7481 32.6698 19.3911C30.8679 19.0341 29.2456 18.0633 28.0792 16.6442C26.9129 15.2251 26.2747 13.4455 26.2734 11.6086C26.2701 10.5659 26.4734 9.53282 26.8717 8.56914C27.2699 7.60546 27.8552 6.73027 28.5938 5.99414ZM11.5078 3.51562V2.73516C11.5084 2.50246 11.6013 2.27951 11.7661 2.11519C11.9308 1.95087 12.154 1.85859 12.3867 1.85859H22.8164C23.0495 1.85859 23.2731 1.95119 23.4379 2.11602C23.6027 2.28085 23.6953 2.5044 23.6953 2.7375V3.51562H11.5078ZM19.957 5.37422V15.7031H15.0117V5.37422H19.957ZM8.69531 57.3633C8.69531 57.5964 8.60271 57.8199 8.43789 57.9848C8.27306 58.1496 8.04951 58.2422 7.81641 58.2422C7.58331 58.2422 7.35975 58.1496 7.19493 57.9848C7.0301 57.8199 6.9375 57.5964 6.9375 57.3633V56.4844H8.69531V57.3633ZM21.4793 35.0391V54.7266H5.41406C4.71495 54.7259 4.04465 54.4479 3.55031 53.9536C3.05596 53.4593 2.77796 52.789 2.77734 52.0898V20.0977C2.77796 19.3985 3.05596 18.7282 3.55031 18.2339C4.04465 17.7396 4.71495 17.4616 5.41406 17.4609H26.4844C26.7527 17.8152 27.0447 18.1507 27.3586 18.4652C28.6794 19.7931 30.359 20.7066 32.1914 21.0938V30.6398H25.8738C25.7137 30.64 25.5537 30.649 25.3945 30.6668V24.327C25.3945 24.0939 25.3019 23.8703 25.1371 23.7055C24.9723 23.5406 24.7487 23.448 24.5156 23.448C24.2825 23.448 24.059 23.5406 23.8941 23.7055C23.7293 23.8703 23.6367 24.0939 23.6367 24.327V31.2539C22.9792 31.6429 22.4344 32.1966 22.0561 32.8604C21.6777 33.5242 21.479 34.2751 21.4793 35.0391ZM30.7629 32.4023V42.3633H29.0859V32.4023H30.7629ZM27.3281 42.3633H26.6613C26.4282 42.3633 26.2047 42.4559 26.0398 42.6207C25.875 42.7855 25.7824 43.0091 25.7824 43.2422V48.3094C25.7824 48.5425 25.875 48.766 26.0398 48.9309C26.2047 49.0957 26.4282 49.1883 26.6613 49.1883H27.3281V58.2422H25.8738C25.1747 58.2416 24.5044 57.9636 24.0101 57.4692C23.5157 56.9749 23.2377 56.3046 23.2371 55.6055V35.0391C23.238 34.34 23.5161 33.6699 24.0104 33.1757C24.5047 32.6814 25.1748 32.4033 25.8738 32.4023H27.3281V42.3633ZM30.7629 58.2422H29.0859V49.1789H30.7629V58.2422ZM32.3086 47.4211H27.5391V44.1117H32.3086V47.4211ZM47.9391 42.3539H47.2723C47.0392 42.3539 46.8156 42.4465 46.6508 42.6113C46.486 42.7762 46.3934 42.9997 46.3934 43.2328V48.3C46.3934 48.5331 46.486 48.7567 46.6508 48.9215C46.8156 49.0863 47.0392 49.1789 47.2723 49.1789H47.9391V58.2422H32.5207V49.1789H33.1875C33.4206 49.1789 33.6441 49.0863 33.809 48.9215C33.9738 48.7567 34.0664 48.5331 34.0664 48.3V43.2328C34.0664 42.9997 33.9738 42.7762 33.809 42.6113C33.6441 42.4465 33.4206 42.3539 33.1875 42.3539H32.5207V32.393H47.9391V42.3539ZM51.3738 58.2422H49.6969V49.1789H51.3738V58.2422ZM52.9195 47.4211H48.1512V44.1117H52.9195V47.4211ZM57.2227 55.6055C57.2217 56.3045 56.9436 56.9746 56.4494 57.4689C55.9551 57.9632 55.285 58.2413 54.5859 58.2422H53.1316V49.1789H53.7984C54.0315 49.1789 54.2551 49.0863 54.4199 48.9215C54.5847 48.7567 54.6773 48.5331 54.6773 48.3V43.2328C54.6773 42.9997 54.5847 42.7762 54.4199 42.6113C54.2551 42.4465 54.0315 42.3539 53.7984 42.3539H53.1316V32.393H54.5859C54.9329 32.3934 55.2763 32.4623 55.5966 32.5955C55.9169 32.7288 56.2078 32.9238 56.4527 33.1696C56.6975 33.4153 56.8916 33.7069 57.0237 34.0277C57.1558 34.3485 57.2234 34.6921 57.2227 35.0391V55.6055ZM17.4844 19.9312C17.2513 19.9312 17.0277 20.0238 16.8629 20.1887C16.6981 20.3535 16.6055 20.5771 16.6055 20.8102V51.3773C16.6055 51.6104 16.6981 51.834 16.8629 51.9988C17.0277 52.1637 17.2513 52.2563 17.4844 52.2563C17.7175 52.2563 17.941 52.1637 18.1059 51.9988C18.2707 51.834 18.3633 51.6104 18.3633 51.3773V20.8102C18.3633 20.5771 18.2707 20.3535 18.1059 20.1887C17.941 20.0238 17.7175 19.9312 17.4844 19.9312ZM37.5926 40.6359H42.866C43.5651 40.6353 44.2354 40.3573 44.7298 39.863C45.2241 39.3686 45.5021 38.6983 45.5027 37.9992V36.7969C45.5018 36.0979 45.2237 35.4277 44.7294 34.9335C44.2351 34.4392 43.565 34.1611 42.866 34.1602H37.5926C36.8936 34.1611 36.2234 34.4392 35.7292 34.9335C35.2349 35.4277 34.9568 36.0979 34.9559 36.7969V38.0051C34.9583 38.7031 35.2371 39.3717 35.7312 39.8647C36.2253 40.3577 36.8946 40.635 37.5926 40.6359ZM36.7137 36.7969C36.7143 36.564 36.8071 36.3408 36.9718 36.1761C37.1365 36.0114 37.3597 35.9186 37.5926 35.918H42.866C43.099 35.9183 43.3224 36.011 43.4872 36.1757C43.6519 36.3405 43.7446 36.5639 43.7449 36.7969V38.0051C43.7449 38.2382 43.6523 38.4617 43.4875 38.6266C43.3227 38.7914 43.0991 38.884 42.866 38.884H37.5926C37.3596 38.8837 37.1362 38.791 36.9714 38.6262C36.8067 38.4615 36.714 38.2381 36.7137 38.0051V36.7969ZM10.4531 23.4469C10.22 23.4469 9.99647 23.5395 9.83165 23.7043C9.66682 23.8691 9.57422 24.0927 9.57422 24.3258V47.8617C9.57422 48.0948 9.66682 48.3184 9.83165 48.4832C9.99647 48.648 10.22 48.7406 10.4531 48.7406C10.6862 48.7406 10.9098 48.648 11.0746 48.4832C11.2394 48.3184 11.332 48.0948 11.332 47.8617V24.3258C11.332 24.0927 11.2394 23.8691 11.0746 23.7043C10.9098 23.5395 10.6862 23.4469 10.4531 23.4469ZM33.2449 11.5371H31.077C30.8953 11.5182 30.7122 11.5565 30.5532 11.6465C30.3942 11.7364 30.2673 11.8737 30.1899 12.0392C30.1126 12.2047 30.0887 12.3902 30.1217 12.5699C30.1547 12.7496 30.2428 12.9145 30.3738 13.0418L35.2488 17.7773C35.4165 17.9372 35.6406 18.0243 35.8722 18.0199C36.1038 18.0154 36.3243 17.9196 36.4857 17.7534C36.6471 17.5873 36.7364 17.3641 36.7341 17.1324C36.7318 16.9007 36.6381 16.6794 36.4734 16.5164L33.1641 13.2949H33.2473C34.0555 13.2923 34.8394 13.0177 35.4727 12.5154C36.1059 12.0131 36.5517 11.3123 36.7383 10.5258H37.459C37.6921 10.5258 37.9156 10.4332 38.0805 10.2684C38.2453 10.1035 38.3379 9.87998 38.3379 9.64688C38.3379 9.41377 38.2453 9.19022 38.0805 9.02539C37.9156 8.86057 37.6921 8.76797 37.459 8.76797H36.7172C36.6308 8.44588 36.4998 8.13743 36.3281 7.85156H37.459C37.6921 7.85156 37.9156 7.75896 38.0805 7.59414C38.2453 7.42931 38.3379 7.20576 38.3379 6.97266C38.3379 6.73956 38.2453 6.516 38.0805 6.35118C37.9156 6.18635 37.6921 6.09375 37.459 6.09375H31.0277C30.7946 6.09375 30.5711 6.18635 30.4063 6.35118C30.2414 6.516 30.1488 6.73956 30.1488 6.97266C30.1488 7.20576 30.2414 7.42931 30.4063 7.59414C30.5711 7.75896 30.7946 7.85156 31.0277 7.85156H33.2449C33.5668 7.85234 33.8828 7.93788 34.1612 8.09957C34.4395 8.26126 34.6703 8.49341 34.8305 8.77266H31.0277C30.7946 8.77266 30.5711 8.86526 30.4063 9.03008C30.2414 9.19491 30.1488 9.41846 30.1488 9.65156C30.1488 9.88466 30.2414 10.1082 30.4063 10.273C30.5711 10.4379 30.7946 10.5305 31.0277 10.5305H34.8785C34.7257 10.8327 34.4922 11.0868 34.2039 11.2645C33.9155 11.4422 33.5836 11.5365 33.2449 11.5371Z" fill="#007E5F"/>
</g>
<defs>
<clipPath id="clip0_20_90">
<rect width="60" height="60" fill="white"/>
</clipPath>
</defs>
</svg>
