<svg width="44" height="44" viewBox="0 0 44 44" fill="none" xmlns="http://www.w3.org/2000/svg">
<path d="M23.0488 34.6384H20.9509C20.6363 34.6374 20.3337 34.5175 20.1038 34.3026C19.874 34.0877 19.734 33.7938 19.7119 33.4799L19.5887 31.6588C19.5885 31.6568 19.5877 31.6549 19.5864 31.6533C19.5852 31.6518 19.5835 31.6506 19.5816 31.65C18.6328 31.413 17.7244 31.0363 16.8862 30.5324C16.884 30.5322 16.8817 30.5325 16.8796 30.5333C16.8775 30.534 16.8755 30.5352 16.8739 30.5368L15.5006 31.7358C15.2631 31.9421 14.9562 32.0509 14.6417 32.0403C14.3273 32.0297 14.0284 31.9005 13.8053 31.6786L12.3199 30.1949C12.098 29.9718 11.9687 29.673 11.9581 29.3585C11.9475 29.044 12.0563 28.7371 12.2627 28.4996L13.4639 27.1263C13.4654 27.1248 13.4666 27.1229 13.4673 27.1208C13.4681 27.1188 13.4684 27.1166 13.4683 27.1144C12.9642 26.2765 12.5873 25.3685 12.3498 24.4199C12.3492 24.418 12.348 24.4163 12.3464 24.4151C12.3449 24.4139 12.343 24.4131 12.341 24.4128L10.5198 24.2879C10.2059 24.2658 9.91197 24.1257 9.69706 23.8958C9.48216 23.6658 9.36222 23.3631 9.36133 23.0484V20.9509C9.36233 20.6363 9.48232 20.3337 9.69721 20.1038C9.9121 19.874 10.206 19.734 10.5198 19.7119L12.341 19.5887C12.343 19.5885 12.3449 19.5877 12.3464 19.5864C12.348 19.5852 12.3492 19.5835 12.3498 19.5816C12.5868 18.6328 12.9634 17.7244 13.4674 16.8862C13.4676 16.884 13.4673 16.8817 13.4665 16.8796C13.4657 16.8775 13.4646 16.8755 13.463 16.8739L12.264 15.5006C12.0576 15.2631 11.9488 14.9562 11.9594 14.6417C11.9701 14.3273 12.0993 14.0284 12.3212 13.8053L13.8049 12.3199C14.028 12.098 14.3268 11.9687 14.6413 11.9581C14.9558 11.9475 15.2627 12.0563 15.5002 12.2627L16.8734 13.4639C16.875 13.4654 16.8769 13.4666 16.8789 13.4673C16.881 13.4681 16.8832 13.4684 16.8853 13.4683C17.7232 12.9642 18.6313 12.5873 19.5799 12.3498C19.5818 12.3492 19.5834 12.348 19.5847 12.3464C19.5859 12.3449 19.5867 12.343 19.5869 12.341L19.7101 10.5198C19.7322 10.2059 19.8723 9.91197 20.1022 9.69706C20.3322 9.48216 20.6349 9.36222 20.9496 9.36133H23.0475C23.3624 9.362 23.6653 9.48184 23.8954 9.69676C24.1256 9.91169 24.2658 10.2058 24.2879 10.5198L24.4111 12.341C24.4113 12.343 24.4121 12.3449 24.4133 12.3464C24.4146 12.348 24.4162 12.3492 24.4181 12.3498C25.367 12.5868 26.2754 12.9634 27.1136 13.4674C27.1158 13.4676 27.1181 13.4673 27.1202 13.4665C27.1223 13.4657 27.1243 13.4646 27.1259 13.463L28.4991 12.264C28.7367 12.0576 29.0435 11.9488 29.358 11.9594C29.6725 11.9701 29.9713 12.0993 30.1944 12.3212L31.6799 13.8049C31.9018 14.028 32.031 14.3268 32.0416 14.6413C32.0523 14.9558 31.9434 15.2627 31.7371 15.5002L30.5359 16.8734C30.5344 16.875 30.5332 16.8769 30.5324 16.8789C30.5317 16.881 30.5314 16.8832 30.5315 16.8853C31.0356 17.7232 31.4125 18.6313 31.65 19.5799C31.6506 19.5818 31.6518 19.5834 31.6533 19.5847C31.6549 19.5859 31.6568 19.5867 31.6588 19.5869L33.4799 19.7101C33.7939 19.7322 34.0878 19.8723 34.3027 20.1022C34.5176 20.3322 34.6376 20.6349 34.6384 20.9496V23.0475C34.6378 23.3624 34.5179 23.6653 34.303 23.8954C34.0881 24.1256 33.794 24.2658 33.4799 24.2879L31.6588 24.4111C31.6568 24.4113 31.6549 24.4121 31.6533 24.4133C31.6518 24.4146 31.6506 24.4162 31.65 24.4181C31.413 25.367 31.0363 26.2754 30.5324 27.1136C30.5322 27.1158 30.5325 27.1181 30.5333 27.1202C30.534 27.1223 30.5352 27.1243 30.5368 27.1259L31.7358 28.4991C31.9421 28.7367 32.0509 29.0435 32.0403 29.358C32.0297 29.6725 31.9005 29.9713 31.6786 30.1944L30.1949 31.6799C29.9718 31.9018 29.673 32.031 29.3585 32.0416C29.044 32.0523 28.7371 31.9434 28.4996 31.7371L27.1263 30.5359C27.1248 30.5344 27.1229 30.5332 27.1208 30.5324C27.1188 30.5317 27.1166 30.5314 27.1144 30.5315C26.2765 31.0356 25.3685 31.4125 24.4199 31.65C24.418 31.6506 24.4163 31.6518 24.4151 31.6533C24.4139 31.6549 24.4131 31.6568 24.4128 31.6588L24.2879 33.4799C24.2658 33.7938 24.1258 34.0877 23.8959 34.3026C23.6661 34.5175 23.3635 34.6374 23.0488 34.6384ZM16.8831 29.2995C17.1074 29.2991 17.3276 29.36 17.5198 29.4755C18.2539 29.9165 19.0492 30.2462 19.88 30.454C20.1349 30.5173 20.3631 30.66 20.5316 30.8614C20.7002 31.0628 20.8003 31.3126 20.8176 31.5747L20.9408 33.3959C20.941 33.3985 20.9422 33.4009 20.944 33.4026C20.9459 33.4044 20.9484 33.4055 20.9509 33.4056H23.0488C23.0514 33.4055 23.0539 33.4044 23.0557 33.4026C23.0576 33.4009 23.0588 33.3985 23.059 33.3959L23.1822 31.5747C23.1994 31.3126 23.2996 31.0628 23.4681 30.8614C23.6367 30.66 23.8649 30.5173 24.1198 30.454C24.9505 30.2462 25.7459 29.9165 26.48 29.4755C26.7053 29.3401 26.9679 29.28 27.2297 29.3037C27.4915 29.3274 27.739 29.4338 27.9364 29.6075L29.31 30.8069C29.3119 30.8086 29.3143 30.8096 29.3169 30.8096C29.3194 30.8096 29.3218 30.8086 29.3237 30.8069L30.8074 29.3232C30.8091 29.3214 30.81 29.319 30.81 29.3164C30.81 29.3139 30.8091 29.3115 30.8074 29.3096L29.6079 27.9359C29.4343 27.7386 29.3279 27.4911 29.3042 27.2293C29.2804 26.9675 29.3406 26.7049 29.4759 26.4795C29.9169 25.7455 30.2467 24.9501 30.4545 24.1194C30.5177 23.8644 30.6604 23.6362 30.8618 23.4677C31.0633 23.2991 31.3131 23.199 31.5752 23.1817L33.3963 23.0585C33.3989 23.0583 33.4013 23.0572 33.4031 23.0553C33.4049 23.0534 33.4059 23.051 33.406 23.0484V20.9509C33.4059 20.9484 33.4049 20.9459 33.4031 20.944C33.4013 20.9422 33.3989 20.941 33.3963 20.9408L31.5752 20.8176C31.3131 20.8003 31.0633 20.7002 30.8618 20.5316C30.6604 20.3631 30.5177 20.1349 30.4545 19.88C30.2467 19.0492 29.9169 18.2539 29.4759 17.5198C29.3406 17.2944 29.2804 17.0319 29.3042 16.7701C29.3279 16.5082 29.4343 16.2608 29.6079 16.0634L30.8074 14.6897C30.8091 14.6879 30.81 14.6854 30.81 14.6829C30.81 14.6804 30.8091 14.678 30.8074 14.6761L29.3237 13.1924C29.3218 13.1907 29.3194 13.1898 29.3169 13.1898C29.3143 13.1898 29.3119 13.1907 29.31 13.1924L27.9364 14.3918C27.739 14.5655 27.4915 14.6719 27.2297 14.6956C26.9679 14.7193 26.7053 14.6592 26.48 14.5238C25.7459 14.0829 24.9505 13.7531 24.1198 13.5453C23.8649 13.482 23.6367 13.3394 23.4681 13.1379C23.2996 12.9365 23.1994 12.6867 23.1822 12.4246L23.059 10.6039C23.0588 10.6013 23.0576 10.5989 23.0557 10.5971C23.0539 10.5953 23.0514 10.5943 23.0488 10.5942H20.9509C20.9484 10.5943 20.9459 10.5953 20.944 10.5971C20.9422 10.5989 20.941 10.6013 20.9408 10.6039L20.8176 12.425C20.8003 12.6871 20.7002 12.9369 20.5316 13.1384C20.3631 13.3398 20.1349 13.4825 19.88 13.5457C19.0492 13.7535 18.2539 14.0833 17.5198 14.5243C17.2944 14.6596 17.0319 14.7198 16.7701 14.6961C16.5082 14.6723 16.2608 14.5659 16.0634 14.3923L14.6897 13.1928C14.6879 13.1911 14.6854 13.1902 14.6829 13.1902C14.6804 13.1902 14.678 13.1911 14.6761 13.1928L13.1924 14.6765C13.1907 14.6784 13.1898 14.6808 13.1898 14.6833C13.1898 14.6859 13.1907 14.6883 13.1924 14.6902L14.3918 16.0638C14.5655 16.2612 14.6719 16.5087 14.6956 16.7705C14.7193 17.0323 14.6592 17.2949 14.5238 17.5202C14.0829 18.2543 13.7531 19.0497 13.5453 19.8804C13.482 20.1353 13.3394 20.3635 13.1379 20.5321C12.9365 20.7006 12.6867 20.8008 12.4246 20.818L10.6039 20.9408C10.6013 20.941 10.5989 20.9422 10.5971 20.944C10.5953 20.9459 10.5943 20.9484 10.5942 20.9509V23.0488C10.5943 23.0514 10.5953 23.0539 10.5971 23.0557C10.5989 23.0576 10.6013 23.0588 10.6039 23.059L12.425 23.1822C12.6871 23.1994 12.9369 23.2996 13.1384 23.4681C13.3398 23.6367 13.4825 23.8649 13.5457 24.1198C13.7535 24.9505 14.0833 25.7459 14.5243 26.48C14.6596 26.7053 14.7198 26.9679 14.6961 27.2297C14.6723 27.4915 14.5659 27.739 14.3923 27.9364L13.1928 29.31C13.1911 29.3119 13.1902 29.3143 13.1902 29.3169C13.1902 29.3194 13.1911 29.3218 13.1928 29.3237L14.6765 30.8074C14.6784 30.8091 14.6808 30.81 14.6833 30.81C14.6859 30.81 14.6883 30.8091 14.6902 30.8074L16.0638 29.6079C16.2906 29.4093 16.5817 29.2998 16.8831 29.2995Z" fill="#0099C1"/>
<path d="M34.7053 37.6823H9.29442C8.50511 37.6815 7.74836 37.3676 7.19024 36.8095C6.63211 36.2514 6.3182 35.4946 6.31738 34.7053V9.29442C6.3182 8.50511 6.63211 7.74836 7.19024 7.19024C7.74836 6.63211 8.50511 6.3182 9.29442 6.31738H34.7053C35.4946 6.3182 36.2514 6.63211 36.8095 7.19024C37.3676 7.74836 37.6815 8.50511 37.6823 9.29442V34.7053C37.6815 35.4946 37.3676 36.2514 36.8095 36.8095C36.2514 37.3676 35.4946 37.6815 34.7053 37.6823ZM9.29442 7.54938C8.83175 7.54985 8.38817 7.73385 8.06101 8.06101C7.73385 8.38817 7.54985 8.83175 7.54938 9.29442V34.7053C7.54985 35.168 7.73385 35.6116 8.06101 35.9387C8.38817 36.2659 8.83175 36.4499 9.29442 36.4503H34.7053C35.168 36.4499 35.6116 36.2659 35.9387 35.9387C36.2659 35.6116 36.4499 35.168 36.4503 34.7053V9.29442C36.4499 8.83175 36.2659 8.38817 35.9387 8.06101C35.6116 7.73385 35.168 7.54985 34.7053 7.54938H9.29442Z" fill="#0099C1"/>
<path d="M39.1389 31.9176H37.0661C36.9027 31.9176 36.746 31.8527 36.6305 31.7372C36.515 31.6217 36.4501 31.465 36.4501 31.3016C36.4501 31.1383 36.515 30.9816 36.6305 30.8661C36.746 30.7505 36.9027 30.6856 37.0661 30.6856H39.1389C39.263 30.6856 39.3858 30.6612 39.5004 30.6137C39.615 30.5662 39.7192 30.4967 39.8069 30.4089C39.8946 30.3212 39.9642 30.2171 40.0117 30.1025C40.0592 29.9879 40.0836 29.865 40.0836 29.741C40.0836 29.6169 40.0592 29.4941 40.0117 29.3794C39.9642 29.2648 39.8946 29.1607 39.8069 29.073C39.7192 28.9852 39.615 28.9157 39.5004 28.8682C39.3858 28.8207 39.263 28.7963 39.1389 28.7963H37.0661C36.9027 28.7963 36.746 28.7314 36.6305 28.6159C36.515 28.5003 36.4501 28.3436 36.4501 28.1803C36.4501 28.0169 36.515 27.8602 36.6305 27.7447C36.746 27.6292 36.9027 27.5643 37.0661 27.5643H39.1389C39.7162 27.5643 40.2699 27.7936 40.6781 28.2018C41.0863 28.61 41.3156 29.1637 41.3156 29.741C41.3156 30.3182 41.0863 30.8719 40.6781 31.2801C40.2699 31.6883 39.7162 31.9176 39.1389 31.9176ZM39.1389 24.1763H37.0661C36.9027 24.1763 36.746 24.1114 36.6305 23.9959C36.515 23.8803 36.4501 23.7236 36.4501 23.5603C36.4501 23.3969 36.515 23.2402 36.6305 23.1247C36.746 23.0092 36.9027 22.9443 37.0661 22.9443H39.1389C39.3895 22.9443 39.6297 22.8447 39.8069 22.6676C39.9841 22.4904 40.0836 22.2501 40.0836 21.9996C40.0836 21.749 39.9841 21.5088 39.8069 21.3316C39.6297 21.1544 39.3895 21.0549 39.1389 21.0549H37.0661C36.9027 21.0549 36.746 20.99 36.6305 20.8745C36.515 20.759 36.4501 20.6023 36.4501 20.4389C36.4501 20.2755 36.515 20.1189 36.6305 20.0033C36.746 19.8878 36.9027 19.8229 37.0661 19.8229H39.1389C39.7162 19.8229 40.2699 20.0522 40.6781 20.4604C41.0863 20.8687 41.3156 21.4223 41.3156 21.9996C41.3156 22.5769 41.0863 23.1305 40.6781 23.5387C40.2699 23.9469 39.7162 24.1763 39.1389 24.1763ZM39.1389 16.4349H37.0661C36.9027 16.4349 36.746 16.37 36.6305 16.2545C36.515 16.139 36.4501 15.9823 36.4501 15.8189C36.4501 15.6555 36.515 15.4989 36.6305 15.3833C36.746 15.2678 36.9027 15.2029 37.0661 15.2029H39.1389C39.3895 15.2029 39.6297 15.1034 39.8069 14.9262C39.9841 14.7491 40.0836 14.5088 40.0836 14.2582C40.0836 14.0077 39.9841 13.7674 39.8069 13.5902C39.6297 13.4131 39.3895 13.3136 39.1389 13.3136H37.0661C36.9027 13.3136 36.746 13.2487 36.6305 13.1331C36.515 13.0176 36.4501 12.8609 36.4501 12.6976C36.4501 12.5342 36.515 12.3775 36.6305 12.262C36.746 12.1465 36.9027 12.0816 37.0661 12.0816H39.1389C39.7162 12.0816 40.2699 12.3109 40.6781 12.7191C41.0863 13.1273 41.3156 13.6809 41.3156 14.2582C41.3156 14.8355 41.0863 15.3892 40.6781 15.7974C40.2699 16.2056 39.7162 16.4349 39.1389 16.4349ZM6.93311 31.9176H4.86027C4.28298 31.9176 3.72934 31.6883 3.32113 31.2801C2.91292 30.8719 2.68359 30.3182 2.68359 29.741C2.68359 29.1637 2.91292 28.61 3.32113 28.2018C3.72934 27.7936 4.28298 27.5643 4.86027 27.5643H6.93311C7.09649 27.5643 7.25317 27.6292 7.36869 27.7447C7.48421 27.8602 7.54911 28.0169 7.54911 28.1803C7.54911 28.3436 7.48421 28.5003 7.36869 28.6159C7.25317 28.7314 7.09649 28.7963 6.93311 28.7963H4.86027C4.60973 28.7963 4.36945 28.8958 4.19228 29.073C4.01512 29.2501 3.91559 29.4904 3.91559 29.741C3.91559 29.9915 4.01512 30.2318 4.19228 30.4089C4.36945 30.5861 4.60973 30.6856 4.86027 30.6856H6.93311C7.09649 30.6856 7.25317 30.7505 7.36869 30.8661C7.48421 30.9816 7.54911 31.1383 7.54911 31.3016C7.54911 31.465 7.48421 31.6217 7.36869 31.7372C7.25317 31.8527 7.09649 31.9176 6.93311 31.9176ZM6.93311 24.1763H4.86027C4.28298 24.1763 3.72934 23.9469 3.32113 23.5387C2.91292 23.1305 2.68359 22.5769 2.68359 21.9996C2.68359 21.4223 2.91292 20.8687 3.32113 20.4604C3.72934 20.0522 4.28298 19.8229 4.86027 19.8229H6.93311C7.09649 19.8229 7.25317 19.8878 7.36869 20.0033C7.48421 20.1189 7.54911 20.2755 7.54911 20.4389C7.54911 20.6023 7.48421 20.759 7.36869 20.8745C7.25317 20.99 7.09649 21.0549 6.93311 21.0549H4.86027C4.60973 21.0549 4.36945 21.1544 4.19228 21.3316C4.01512 21.5088 3.91559 21.749 3.91559 21.9996C3.91559 22.2501 4.01512 22.4904 4.19228 22.6676C4.36945 22.8447 4.60973 22.9443 4.86027 22.9443H6.93311C7.09649 22.9443 7.25317 23.0092 7.36869 23.1247C7.48421 23.2402 7.54911 23.3969 7.54911 23.5603C7.54911 23.7236 7.48421 23.8803 7.36869 23.9959C7.25317 24.1114 7.09649 24.1763 6.93311 24.1763ZM6.93311 16.4349H4.86027C4.28298 16.4349 3.72934 16.2056 3.32113 15.7974C2.91292 15.3892 2.68359 14.8355 2.68359 14.2582C2.68359 13.6809 2.91292 13.1273 3.32113 12.7191C3.72934 12.3109 4.28298 12.0816 4.86027 12.0816H6.93311C7.09649 12.0816 7.25317 12.1465 7.36869 12.262C7.48421 12.3775 7.54911 12.5342 7.54911 12.6976C7.54911 12.8609 7.48421 13.0176 7.36869 13.1331C7.25317 13.2487 7.09649 13.3136 6.93311 13.3136H4.86027C4.60973 13.3136 4.36945 13.4131 4.19228 13.5902C4.01512 13.7674 3.91559 14.0077 3.91559 14.2582C3.91559 14.5088 4.01512 14.7491 4.19228 14.9262C4.36945 15.1034 4.60973 15.2029 4.86027 15.2029H6.93311C7.09649 15.2029 7.25317 15.2678 7.36869 15.3833C7.48421 15.4989 7.54911 15.6555 7.54911 15.8189C7.54911 15.9823 7.48421 16.139 7.36869 16.2545C7.25317 16.37 7.09649 16.4349 6.93311 16.4349ZM31.3016 7.54911C31.1383 7.54911 30.9816 7.48421 30.8661 7.36869C30.7505 7.25317 30.6856 7.09649 30.6856 6.93311V4.86027C30.6856 4.73622 30.6612 4.61337 30.6137 4.49876C30.5662 4.38415 30.4967 4.28001 30.4089 4.19228C30.3212 4.10456 30.2171 4.03498 30.1025 3.9875C29.9879 3.94003 29.865 3.91559 29.741 3.91559C29.6169 3.91559 29.4941 3.94003 29.3794 3.9875C29.2648 4.03498 29.1607 4.10456 29.073 4.19228C28.9852 4.28001 28.9157 4.38415 28.8682 4.49876C28.8207 4.61337 28.7963 4.73622 28.7963 4.86027V6.93311C28.7963 7.09649 28.7314 7.25317 28.6159 7.36869C28.5003 7.48421 28.3436 7.54911 28.1803 7.54911C28.0169 7.54911 27.8602 7.48421 27.7447 7.36869C27.6292 7.25317 27.5643 7.09649 27.5643 6.93311V4.86027C27.5643 4.28298 27.7936 3.72934 28.2018 3.32113C28.61 2.91292 29.1637 2.68359 29.741 2.68359C30.3182 2.68359 30.8719 2.91292 31.2801 3.32113C31.6883 3.72934 31.9176 4.28298 31.9176 4.86027V6.93311C31.9176 7.09649 31.8527 7.25317 31.7372 7.36869C31.6217 7.48421 31.465 7.54911 31.3016 7.54911ZM23.5603 7.54911C23.3969 7.54911 23.2402 7.48421 23.1247 7.36869C23.0092 7.25317 22.9443 7.09649 22.9443 6.93311V4.86027C22.9443 4.60973 22.8447 4.36945 22.6676 4.19228C22.4904 4.01512 22.2501 3.91559 21.9996 3.91559C21.749 3.91559 21.5088 4.01512 21.3316 4.19228C21.1544 4.36945 21.0549 4.60973 21.0549 4.86027V6.93311C21.0549 7.09649 20.99 7.25317 20.8745 7.36869C20.759 7.48421 20.6023 7.54911 20.4389 7.54911C20.2755 7.54911 20.1189 7.48421 20.0033 7.36869C19.8878 7.25317 19.8229 7.09649 19.8229 6.93311V4.86027C19.8229 4.28298 20.0522 3.72934 20.4604 3.32113C20.8687 2.91292 21.4223 2.68359 21.9996 2.68359C22.5769 2.68359 23.1305 2.91292 23.5387 3.32113C23.9469 3.72934 24.1763 4.28298 24.1763 4.86027V6.93311C24.1763 7.09649 24.1114 7.25317 23.9959 7.36869C23.8803 7.48421 23.7236 7.54911 23.5603 7.54911ZM15.8189 7.54911C15.6555 7.54911 15.4989 7.48421 15.3833 7.36869C15.2678 7.25317 15.2029 7.09649 15.2029 6.93311V4.86027C15.2029 4.60973 15.1034 4.36945 14.9262 4.19228C14.7491 4.01512 14.5088 3.91559 14.2582 3.91559C14.0077 3.91559 13.7674 4.01512 13.5902 4.19228C13.4131 4.36945 13.3136 4.60973 13.3136 4.86027V6.93311C13.3136 7.09649 13.2487 7.25317 13.1331 7.36869C13.0176 7.48421 12.8609 7.54911 12.6976 7.54911C12.5342 7.54911 12.3775 7.48421 12.262 7.36869C12.1465 7.25317 12.0816 7.09649 12.0816 6.93311V4.86027C12.0816 4.28298 12.3109 3.72934 12.7191 3.32113C13.1273 2.91292 13.6809 2.68359 14.2582 2.68359C14.8355 2.68359 15.3892 2.91292 15.7974 3.32113C16.2056 3.72934 16.4349 4.28298 16.4349 4.86027V6.93311C16.4349 7.09649 16.37 7.25317 16.2545 7.36869C16.139 7.48421 15.9823 7.54911 15.8189 7.54911ZM29.741 41.3156C29.1638 41.315 28.6105 41.0855 28.2025 40.6774C27.7944 40.2693 27.5649 39.716 27.5643 39.1389V37.0661C27.5643 36.9027 27.6292 36.746 27.7447 36.6305C27.8602 36.515 28.0169 36.4501 28.1803 36.4501C28.3436 36.4501 28.5003 36.515 28.6159 36.6305C28.7314 36.746 28.7963 36.9027 28.7963 37.0661V39.1389C28.7963 39.3895 28.8958 39.6297 29.073 39.8069C29.2501 39.9841 29.4904 40.0836 29.741 40.0836C29.9915 40.0836 30.2318 39.9841 30.4089 39.8069C30.5861 39.6297 30.6856 39.3895 30.6856 39.1389V37.0661C30.6856 36.9027 30.7505 36.746 30.8661 36.6305C30.9816 36.515 31.1383 36.4501 31.3016 36.4501C31.465 36.4501 31.6217 36.515 31.7372 36.6305C31.8527 36.746 31.9176 36.9027 31.9176 37.0661V39.1389C31.9169 39.716 31.6874 40.2692 31.2793 40.6773C30.8713 41.0853 30.318 41.3149 29.741 41.3156ZM21.9996 41.3156C21.4225 41.315 20.8692 41.0855 20.4611 40.6774C20.053 40.2693 19.8235 39.716 19.8229 39.1389V37.0661C19.8229 36.9027 19.8878 36.746 20.0033 36.6305C20.1189 36.515 20.2755 36.4501 20.4389 36.4501C20.6023 36.4501 20.759 36.515 20.8745 36.6305C20.99 36.746 21.0549 36.9027 21.0549 37.0661V39.1389C21.0549 39.3895 21.1544 39.6297 21.3316 39.8069C21.5088 39.9841 21.749 40.0836 21.9996 40.0836C22.2501 40.0836 22.4904 39.9841 22.6676 39.8069C22.8447 39.6297 22.9443 39.3895 22.9443 39.1389V37.0661C22.9443 36.9027 23.0092 36.746 23.1247 36.6305C23.2402 36.515 23.3969 36.4501 23.5603 36.4501C23.7236 36.4501 23.8803 36.515 23.9959 36.6305C24.1114 36.746 24.1763 36.9027 24.1763 37.0661V39.1389C24.1757 39.716 23.9462 40.2693 23.5381 40.6774C23.13 41.0855 22.5767 41.315 21.9996 41.3156ZM14.2582 41.3156C13.6812 41.3149 13.1279 41.0853 12.7199 40.6773C12.3118 40.2692 12.0823 39.716 12.0816 39.1389V37.0661C12.0816 36.9027 12.1465 36.746 12.262 36.6305C12.3775 36.515 12.5342 36.4501 12.6976 36.4501C12.8609 36.4501 13.0176 36.515 13.1331 36.6305C13.2487 36.746 13.3136 36.9027 13.3136 37.0661V39.1389C13.3136 39.263 13.338 39.3858 13.3855 39.5004C13.4329 39.615 13.5025 39.7192 13.5902 39.8069C13.678 39.8946 13.7821 39.9642 13.8967 40.0117C14.0113 40.0592 14.1342 40.0836 14.2582 40.0836C14.3823 40.0836 14.5051 40.0592 14.6197 40.0117C14.7344 39.9642 14.8385 39.8946 14.9262 39.8069C15.0139 39.7192 15.0835 39.615 15.131 39.5004C15.1785 39.3858 15.2029 39.263 15.2029 39.1389V37.0661C15.2029 36.9027 15.2678 36.746 15.3833 36.6305C15.4989 36.515 15.6555 36.4501 15.8189 36.4501C15.9823 36.4501 16.139 36.515 16.2545 36.6305C16.37 36.746 16.4349 36.9027 16.4349 37.0661V39.1389C16.4343 39.716 16.2048 40.2693 15.7967 40.6774C15.3887 41.0855 14.8353 41.315 14.2582 41.3156ZM21.9996 28.7963C18.2521 28.7963 15.2029 25.7471 15.2029 21.9996C15.2029 18.2521 18.2521 15.2029 21.9996 15.2029C25.7471 15.2029 28.7963 18.2521 28.7963 21.9996C28.7963 25.7471 25.7471 28.7963 21.9996 28.7963ZM21.9996 16.4349C20.899 16.4349 19.8231 16.7613 18.908 17.3727C17.9929 17.9842 17.2797 18.8533 16.8585 19.8701C16.4373 20.8869 16.3271 22.0058 16.5418 23.0852C16.7566 24.1647 17.2865 25.1562 18.0648 25.9344C18.843 26.7127 19.8345 27.2426 20.914 27.4573C21.9934 27.6721 23.1123 27.5619 24.1291 27.1407C25.1459 26.7195 26.015 26.0063 26.6265 25.0912C27.2379 24.1761 27.5643 23.1002 27.5643 21.9996C27.5625 20.5243 26.9757 19.1099 25.9325 18.0667C24.8893 17.0235 23.4749 16.4367 21.9996 16.4349Z" fill="#0099C1"/>
<path d="M28.1805 22.616H24.3758C24.2124 22.616 24.0558 22.5511 23.9402 22.4356C23.8247 22.3201 23.7598 22.1634 23.7598 22V20.0799C23.7598 19.9165 23.8247 19.7598 23.9402 19.6443C24.0558 19.5288 24.2124 19.4639 24.3758 19.4639C24.5392 19.4639 24.6959 19.5288 24.8114 19.6443C24.9269 19.7598 24.9918 19.9165 24.9918 20.0799V21.384H28.1805C28.3439 21.384 28.5005 21.4489 28.6161 21.5644C28.7316 21.68 28.7965 21.8367 28.7965 22C28.7965 22.1634 28.7316 22.3201 28.6161 22.4356C28.5005 22.5511 28.3439 22.616 28.1805 22.616ZM21.9998 28.7967C21.8364 28.7967 21.6797 28.7318 21.5642 28.6163C21.4487 28.5008 21.3838 28.3441 21.3838 28.1807V24.992H20.0796C19.9163 24.992 19.7596 24.9271 19.6441 24.8116C19.5285 24.6961 19.4636 24.5394 19.4636 24.376C19.4636 24.2127 19.5285 24.056 19.6441 23.9405C19.7596 23.8249 19.9163 23.76 20.0796 23.76H21.9998C22.1632 23.76 22.3199 23.8249 22.4354 23.9405C22.5509 24.056 22.6158 24.2127 22.6158 24.376V28.1807C22.6158 28.3441 22.5509 28.5008 22.4354 28.6163C22.3199 28.7318 22.1632 28.7967 21.9998 28.7967ZM18.8142 22.616H15.8191C15.6558 22.616 15.4991 22.5511 15.3835 22.4356C15.268 22.3201 15.2031 22.1634 15.2031 22C15.2031 21.8367 15.268 21.68 15.3835 21.5644C15.4991 21.4489 15.6558 21.384 15.8191 21.384H18.5581L20.2869 19.6456C20.4021 19.5297 20.5587 19.4644 20.7221 19.4639C20.8855 19.4634 21.0424 19.5279 21.1583 19.6432C21.2742 19.7584 21.3395 19.915 21.34 20.0784C21.3404 20.2418 21.276 20.3987 21.1607 20.5146L19.2511 22.4343C19.1939 22.4919 19.1258 22.5376 19.0508 22.5688C18.9758 22.6 18.8954 22.616 18.8142 22.616Z" fill="#0099C1"/>
</svg>
