<svg width="44" height="44" viewBox="0 0 44 44" fill="none" xmlns="http://www.w3.org/2000/svg">
<path d="M26.1423 4.54166C24.9957 4.54166 24.0562 5.48107 24.0562 6.6277C24.0562 7.77434 24.9957 8.71375 26.1423 8.71375C27.2889 8.71375 28.2283 7.77434 28.2283 6.6277C28.2283 5.48107 27.2889 4.54166 26.1423 4.54166ZM26.1423 8.07136C25.3479 8.07136 24.6917 7.42206 24.6917 6.62079C24.6917 5.82644 25.341 5.17023 26.1423 5.17023C26.9366 5.17023 27.5929 5.81953 27.5929 6.62079C27.5859 7.42206 26.9366 8.07136 26.1423 8.07136ZM8.81844 21.2784C7.31953 21.2784 6.10382 22.4941 6.10382 23.9861C6.10382 25.485 7.31953 26.7007 8.81844 26.7007C10.3174 26.7007 11.5331 25.485 11.5331 23.9861C11.5331 22.4941 10.3174 21.2784 8.81844 21.2784ZM8.81844 26.0652C7.67872 26.0652 6.7393 25.1327 6.7393 23.9861C6.7393 22.8464 7.67872 21.9139 8.81844 21.9139C9.96508 21.9139 10.8976 22.8464 10.8976 23.9861C10.8976 25.1327 9.96508 26.0652 8.81844 26.0652Z" fill="#007E5F"/>
<path d="M41.0555 18.5499L40.4131 14.212C40.3578 13.8459 40.1161 13.5489 39.7776 13.4177L35.7022 11.8083C35.3638 11.677 34.97 11.7392 34.7006 11.9602L34.673 11.974L30.5009 7.31151C30.5424 7.09048 30.5562 6.85562 30.5562 6.62077C30.5562 4.18245 28.5738 2.20001 26.1354 2.20001C23.8076 2.20001 21.8943 4.00976 21.7285 6.30303L7.75474 18.2045C5.01249 18.7088 2.93335 21.1126 2.93335 23.9861C2.93335 25.706 3.67935 27.2533 4.86052 28.3308L8.79085 38.7887H6.09695C5.56508 38.7887 5.14373 39.217 5.14373 39.7419V42.6914C5.14373 43.2164 5.57199 43.6446 6.09695 43.6446H33.7405C34.2724 43.6446 34.6937 43.2095 34.6937 42.6914V39.7419C34.6937 39.2101 34.2655 38.7887 33.7405 38.7887H21.687L14.4688 25.6024C14.5793 25.2294 14.6415 24.8495 14.676 24.4558L26.3979 11.0277C26.543 11.0208 26.688 11.007 26.8331 10.9863L31.1226 14.8337C30.9361 15.0478 30.8394 15.3449 30.8877 15.6281L31.537 19.9659C31.5854 20.3251 31.8272 20.6291 32.1656 20.7603L36.2479 22.3697C36.3653 22.4112 36.4897 22.4388 36.6209 22.4388C37.0354 22.4388 37.4084 22.1901 37.5672 21.7964C37.7745 21.2784 37.512 20.6843 36.9939 20.484L33.4642 19.0956L32.9876 15.9113L35.5088 13.915L38.4928 15.0893L39.0523 18.8538C39.1283 19.3512 39.5497 19.7173 40.0815 19.7173L40.2059 19.7035C40.7516 19.6137 41.1384 19.0956 41.0555 18.5499ZM3.56883 23.9861C3.56883 21.0988 5.93118 18.7433 8.81849 18.7433C11.7127 18.7433 14.0681 21.0988 14.0681 23.9861C14.0681 26.8803 11.7127 29.2357 8.81849 29.2357C5.92427 29.2357 3.56883 26.8803 3.56883 23.9861ZM33.7405 39.4242C33.9201 39.4242 34.0583 39.5623 34.0583 39.7419V42.6914C34.0583 42.8641 33.9201 43.0091 33.7405 43.0091H6.09695C5.91736 43.0091 5.77921 42.8641 5.77921 42.6914V39.7419C5.77921 39.5623 5.91736 39.4242 6.09695 39.4242H33.7405ZM20.9618 38.7887H9.46778L5.79994 29.0285C6.68409 29.5604 7.7133 29.8712 8.81849 29.8712C11.2085 29.8712 13.26 28.4414 14.1787 26.3968L20.9618 38.7887ZM14.676 23.4818C14.4204 20.4909 11.913 18.1286 8.85302 18.1078L21.7423 7.12501C21.9702 9.14198 23.5659 10.7445 25.5759 11.0001L14.676 23.4818ZM26.2321 10.406C26.2252 10.406 26.2252 10.406 26.2183 10.406C26.1907 10.406 26.1631 10.413 26.1354 10.413C24.0494 10.413 22.3571 8.71372 22.3571 6.62768C22.3571 4.54163 24.0563 2.8424 26.1423 2.8424C28.2284 2.8424 29.9207 4.54163 29.9207 6.62077C29.9207 8.67919 28.2767 10.3577 26.2321 10.406ZM27.5791 10.7998C28.8639 10.3508 29.8723 9.3423 30.3144 8.06443L34.1688 12.3747L31.6061 14.4055L27.5791 10.7998ZM40.1299 19.0611L40.0539 19.068C39.8605 19.068 39.7085 18.9367 39.6809 18.7502L39.0938 14.813C39.0731 14.6956 39.004 14.6058 38.8935 14.5643L35.5641 13.2519C35.4536 13.2105 35.3361 13.2243 35.2463 13.2934L32.4419 15.5245C32.3521 15.5935 32.3107 15.711 32.3245 15.8146L32.8564 19.3581C32.8771 19.4755 32.9462 19.5653 33.0567 19.6068L36.7591 21.0642C36.9594 21.1402 37.0492 21.3543 36.9732 21.5546C36.8972 21.7411 36.6762 21.8448 36.4828 21.7619L32.4005 20.1524C32.2761 20.1041 32.1932 19.9936 32.1725 19.8623L31.5232 15.5245C31.5025 15.3932 31.5578 15.2551 31.6614 15.1722L34.8181 12.6579C34.8319 12.651 34.8388 12.6441 34.8526 12.6371C34.8595 12.6302 34.8595 12.6233 34.8664 12.6233L35.0944 12.4368C35.1565 12.3885 35.2394 12.3539 35.3223 12.3539C35.3707 12.3539 35.419 12.3609 35.4605 12.3816L39.5428 13.991C39.6671 14.0394 39.7569 14.1568 39.7776 14.2811L40.42 18.619C40.4545 18.8469 40.3164 19.0403 40.1299 19.0611Z" fill="#007E5F"/>
</svg>
