<svg width="44" height="44" viewBox="0 0 44 44" fill="none" xmlns="http://www.w3.org/2000/svg">
<path d="M16.4997 22.0003C16.4997 23.0129 15.6789 23.8337 14.6663 23.8337C13.6538 23.8337 12.833 23.0129 12.833 22.0003C12.833 20.9878 13.6538 20.167 14.6663 20.167C15.6789 20.167 16.4997 20.9878 16.4997 22.0003Z" fill="#0099C1"/>
<path d="M23.8337 22.0003C23.8337 23.0129 23.0129 23.8337 22.0003 23.8337C20.9878 23.8337 20.167 23.0129 20.167 22.0003C20.167 20.9878 20.9878 20.167 22.0003 20.167C23.0129 20.167 23.8337 20.9878 23.8337 22.0003Z" fill="#0099C1"/>
<path d="M29.3333 23.8337C30.3459 23.8337 31.1667 23.0129 31.1667 22.0003C31.1667 20.9878 30.3459 20.167 29.3333 20.167C28.3208 20.167 27.5 20.9878 27.5 22.0003C27.5 23.0129 28.3208 23.8337 29.3333 23.8337Z" fill="#0099C1"/>
<path fill-rule="evenodd" clip-rule="evenodd" d="M22.0003 2.29199C11.1157 2.29199 2.29199 11.1157 2.29199 22.0003C2.29199 32.885 11.1157 41.7087 22.0003 41.7087C32.885 41.7087 41.7087 32.885 41.7087 22.0003C41.7087 11.1157 32.885 2.29199 22.0003 2.29199ZM5.04199 22.0003C5.04199 12.6345 12.6345 5.04199 22.0003 5.04199C31.3661 5.04199 38.9587 12.6345 38.9587 22.0003C38.9587 31.3661 31.3661 38.9587 22.0003 38.9587C12.6345 38.9587 5.04199 31.3661 5.04199 22.0003Z" fill="#0099C1"/>
</svg>
