<svg width="60" height="60" viewBox="0 0 60 60" fill="none" xmlns="http://www.w3.org/2000/svg">
<g clip-path="url(#clip0_20_88)">
<path d="M14.0625 33.75C13.8771 33.75 13.6958 33.805 13.5416 33.908C13.3875 34.011 13.2673 34.1574 13.1964 34.3287C13.1254 34.5 13.1068 34.6885 13.143 34.8704C13.1792 35.0523 13.2685 35.2193 13.3996 35.3504C13.5307 35.4815 13.6977 35.5708 13.8796 35.607C14.0615 35.6432 14.25 35.6246 14.4213 35.5536C14.5926 35.4827 14.739 35.3625 14.842 35.2083C14.945 35.0542 15 34.8729 15 34.6875C15 34.4389 14.9012 34.2004 14.7254 34.0246C14.5496 33.8488 14.3111 33.75 14.0625 33.75ZM19.6875 35.625C19.5021 35.625 19.3208 35.68 19.1666 35.783C19.0125 35.886 18.8923 36.0324 18.8214 36.2037C18.7504 36.375 18.7318 36.5635 18.768 36.7454C18.8042 36.9273 18.8935 37.0943 19.0246 37.2254C19.1557 37.3565 19.3227 37.4458 19.5046 37.482C19.6865 37.5182 19.875 37.4996 20.0463 37.4286C20.2176 37.3577 20.364 37.2375 20.467 37.0833C20.57 36.9292 20.625 36.7479 20.625 36.5625C20.625 36.3139 20.5262 36.0754 20.3504 35.8996C20.1746 35.7238 19.9361 35.625 19.6875 35.625ZM8.43749 35.625C8.25207 35.625 8.07081 35.68 7.91664 35.783C7.76247 35.886 7.64231 36.0324 7.57135 36.2037C7.5004 36.375 7.48183 36.5635 7.518 36.7454C7.55418 36.9273 7.64347 37.0943 7.77458 37.2254C7.90569 37.3565 8.07274 37.4458 8.25459 37.482C8.43645 37.5182 8.62495 37.4996 8.79626 37.4286C8.96756 37.3577 9.11398 37.2375 9.21699 37.0833C9.32001 36.9292 9.37499 36.7479 9.37499 36.5625C9.37499 36.3139 9.27622 36.0754 9.1004 35.8996C8.92459 35.7238 8.68613 35.625 8.43749 35.625ZM14.0625 37.5C13.8771 37.5 13.6958 37.555 13.5416 37.658C13.3875 37.761 13.2673 37.9074 13.1964 38.0787C13.1254 38.25 13.1068 38.4385 13.143 38.6204C13.1792 38.8023 13.2685 38.9693 13.3996 39.1004C13.5307 39.2315 13.6977 39.3208 13.8796 39.357C14.0615 39.3932 14.25 39.3746 14.4213 39.3036C14.5926 39.2327 14.739 39.1125 14.842 38.9583C14.945 38.8042 15 38.6229 15 38.4375C15 38.1889 14.9012 37.9504 14.7254 37.7746C14.5496 37.5988 14.3111 37.5 14.0625 37.5ZM32.8125 37.5C32.6271 37.5 32.4458 37.555 32.2916 37.658C32.1375 37.761 32.0173 37.9074 31.9464 38.0787C31.8754 38.25 31.8568 38.4385 31.893 38.6204C31.9292 38.8023 32.0185 38.9693 32.1496 39.1004C32.2807 39.2315 32.4477 39.3208 32.6296 39.357C32.8115 39.3932 33 39.3746 33.1713 39.3036C33.3426 39.2327 33.489 39.1125 33.592 38.9583C33.695 38.8042 33.75 38.6229 33.75 38.4375C33.75 38.1889 33.6512 37.9504 33.4754 37.7746C33.2996 37.5988 33.0611 37.5 32.8125 37.5ZM54.375 18.75V15H45V6.3375L50.025 1.33125L48.75 0L43.125 5.625V15H33.75V18.75H28.125V24.375H30.0937L30.6937 30.15C30.1555 30.0519 29.6096 30.0017 29.0625 30H12.1875C9.45397 30.005 6.83382 31.093 4.90093 33.0259C2.96803 34.9588 1.87995 37.579 1.87499 40.3125V41.4188C1.32347 41.6072 0.844673 41.9633 0.505652 42.4374C0.166632 42.9115 -0.0156398 43.4797 -0.0156398 44.0625C-0.0156398 44.6453 0.166632 45.2135 0.505652 45.6876C0.844673 46.1617 1.32347 46.5178 1.87499 46.7062V49.8563C1.32117 50.0396 0.839215 50.3928 0.497622 50.8658C0.156028 51.3387 -0.027832 51.9072 -0.027832 52.4906C-0.027832 53.074 0.156028 53.6426 0.497622 54.1155C0.839215 54.5884 1.32117 54.9416 1.87499 55.125C2.05768 56.4834 2.73006 57.7283 3.76581 58.626C4.80157 59.5236 6.12943 60.0122 7.49999 60H54.375L58.125 24.375H60V18.75H54.375ZM35.625 16.875H52.5V18.75H35.625V16.875ZM3.74999 40.3125C3.75494 38.0763 4.64548 35.933 6.22675 34.3518C7.80801 32.7705 9.95125 31.88 12.1875 31.875H29.0625C31.2987 31.88 33.442 32.7705 35.0232 34.3518C36.6045 35.933 37.495 38.0763 37.5 40.3125V41.25H3.74999V40.3125ZM2.81249 43.125H38.4375C38.6861 43.125 38.9246 43.2238 39.1004 43.3996C39.2762 43.5754 39.375 43.8139 39.375 44.0625C39.375 44.3111 39.2762 44.5496 39.1004 44.7254C38.9246 44.9012 38.6861 45 38.4375 45H2.81249C2.56385 45 2.32539 44.9012 2.14958 44.7254C1.97376 44.5496 1.87499 44.3111 1.87499 44.0625C1.87499 43.8139 1.97376 43.5754 2.14958 43.3996C2.32539 43.2238 2.56385 43.125 2.81249 43.125ZM3.74999 49.6875V46.875H38.175V49.6875H3.74999ZM15.1312 51.5625L13.125 54.0375L11.1187 51.5625H15.1312ZM17.55 51.5625H38.4562C38.7049 51.5625 38.9433 51.6613 39.1192 51.8371C39.295 52.0129 39.3937 52.2514 39.3937 52.5C39.3937 52.7486 39.295 52.9871 39.1192 53.1629C38.9433 53.3387 38.7049 53.4375 38.4562 53.4375H16.0687L17.55 51.5625ZM2.79374 53.4375C2.5451 53.4375 2.30664 53.3387 2.13083 53.1629C1.95501 52.9871 1.85624 52.7486 1.85624 52.5C1.85624 52.2514 1.95501 52.0129 2.13083 51.8371C2.30664 51.6613 2.5451 51.5625 2.79374 51.5625H8.69999L10.1812 53.4375H2.79374ZM33.75 58.125H7.49999C6.64082 58.149 5.79949 57.8771 5.11684 57.3549C4.43418 56.8326 3.95164 56.0918 3.74999 55.2562H11.7L13.125 57L14.55 55.2562H37.3875C37.1901 56.0727 36.7243 56.7993 36.0647 57.3195C35.4051 57.8397 34.59 58.1233 33.75 58.125ZM52.65 58.125H37.8562C38.357 57.5812 38.7456 56.9441 39 56.25H52.8L52.65 58.125ZM53.0437 54.375H40.4437C40.9475 53.8796 41.2369 53.2064 41.25 52.5C41.249 52.0529 41.1392 51.6127 40.9302 51.2174C40.7211 50.8222 40.419 50.4837 40.05 50.2313V46.35C40.2507 46.2176 40.4281 46.0529 40.575 45.8625C41.6611 46.552 42.926 46.907 44.2123 46.8834C45.4986 46.8598 46.7496 46.4586 47.8097 45.7298C48.8699 45.001 49.6924 43.9767 50.1751 42.7841C50.6577 41.5916 50.7793 40.2835 50.5245 39.0225C50.2698 37.7615 49.65 36.6031 48.7422 35.6915C47.8345 34.7799 46.6788 34.1551 45.4188 33.895C44.1589 33.6349 42.8503 33.7509 41.6557 34.2284C40.4612 34.706 39.4333 35.5242 38.7 36.5812C38.1697 35.226 37.3596 33.9978 36.3225 32.9769C35.2854 31.956 34.0446 31.1652 32.6812 30.6562L31.9875 24.375H56.1375L53.0437 54.375ZM39.375 41.4188V40.3125C39.3708 39.2465 39.7271 38.2104 40.3862 37.3725C41.0452 36.5347 41.9683 35.9443 43.0053 35.6973C44.0423 35.4504 45.1323 35.5613 46.0983 36.0121C47.0643 36.463 47.8494 37.2272 48.3261 38.1807C48.8029 39.1341 48.9432 40.2208 48.7243 41.2641C48.5053 42.3074 47.9401 43.246 47.1203 43.9274C46.3005 44.6088 45.2744 44.993 44.2087 45.0175C43.143 45.042 42.1003 44.7055 41.25 44.0625C41.2457 43.4829 41.0635 42.9186 40.7282 42.4458C40.3929 41.973 39.9206 41.6145 39.375 41.4188ZM58.125 22.5H30V20.625H58.125V22.5ZM27.1875 37.5C27.0021 37.5 26.8208 37.555 26.6666 37.658C26.5125 37.761 26.3923 37.9074 26.3214 38.0787C26.2504 38.25 26.2318 38.4385 26.268 38.6204C26.3042 38.8023 26.3935 38.9693 26.5246 39.1004C26.6557 39.2315 26.8227 39.3208 27.0046 39.357C27.1865 39.3932 27.375 39.3746 27.5463 39.3036C27.7176 39.2327 27.864 39.1125 27.967 38.9583C28.07 38.8042 28.125 38.6229 28.125 38.4375C28.125 38.1889 28.0262 37.9504 27.8504 37.7746C27.6746 37.5988 27.4361 37.5 27.1875 37.5ZM29.0625 33.75C28.8771 33.75 28.6958 33.805 28.5416 33.908C28.3875 34.011 28.2673 34.1574 28.1964 34.3287C28.1254 34.5 28.1068 34.6885 28.143 34.8704C28.1792 35.0523 28.2685 35.2193 28.3996 35.3504C28.5307 35.4815 28.6977 35.5708 28.8796 35.607C29.0615 35.6432 29.25 35.6246 29.4213 35.5536C29.5926 35.4827 29.739 35.3625 29.842 35.2083C29.945 35.0542 30 34.8729 30 34.6875C30 34.4389 29.9012 34.2004 29.7254 34.0246C29.5496 33.8488 29.3111 33.75 29.0625 33.75Z" fill="#007E5F"/>
</g>
<defs>
<clipPath id="clip0_20_88">
<rect width="60" height="60" fill="white"/>
</clipPath>
</defs>
</svg>
