<svg width="60" height="60" viewBox="0 0 60 60" fill="none" xmlns="http://www.w3.org/2000/svg">
<g clip-path="url(#clip0_20_85)">
<path d="M30 0C13.4388 0 0 13.4388 0 30C0 46.5612 13.4388 60 30 60C46.5612 60 60 46.5612 60 30C60 13.4388 46.5612 0 30 0ZM30 1.265C45.8775 1.265 58.735 14.1225 58.735 30C58.735 45.8775 45.8775 58.7375 30 58.7375C14.1225 58.7375 1.265 45.8775 1.265 30C1.265 14.1225 14.1225 1.265 30 1.265ZM22.1375 10.5275C22.0953 10.5295 22.0534 10.5358 22.0125 10.5463V10.545C21.898 10.5711 21.7932 10.6289 21.7101 10.7118C21.627 10.7947 21.5689 10.8994 21.5425 11.0138L20.3713 15.31H19.0037C18.838 15.31 18.679 15.3758 18.5618 15.4931C18.4446 15.6103 18.3787 15.7692 18.3787 15.935V25.4275L17.7925 23.005C17.7761 22.9062 17.7363 22.8127 17.6763 22.7325C17.6629 22.7321 17.6496 22.7321 17.6362 22.7325C17.6367 22.7192 17.6367 22.7058 17.6362 22.6925C17.6238 22.6921 17.6112 22.6921 17.5988 22.6925C17.5991 22.6804 17.5991 22.6683 17.5988 22.6562C17.5854 22.6558 17.5721 22.6558 17.5588 22.6562C17.5592 22.6433 17.5592 22.6304 17.5588 22.6175C17.5458 22.6171 17.5329 22.6171 17.52 22.6175C17.4961 22.589 17.4698 22.5626 17.4412 22.5387C17.4283 22.5383 17.4154 22.5383 17.4025 22.5387C17.3274 22.5109 17.2476 22.4977 17.1675 22.5C17.1008 22.5024 17.035 22.5155 16.9725 22.5387H13.34V23.7887H16.6987L20.1362 38.2812C20.149 38.2948 20.1623 38.3077 20.1763 38.32C20.1848 38.3603 20.1974 38.3997 20.2137 38.4375L21.27 42.8512C20.7645 43.1175 20.3411 43.5163 20.0451 44.005C19.7491 44.4937 19.5918 45.0537 19.59 45.625C19.59 47.3438 20.9963 48.75 22.715 48.75C24.4338 48.75 25.84 47.3438 25.84 45.625C25.84 44.9313 25.6013 44.27 25.215 43.75H31.465C31.0775 44.27 30.84 44.9313 30.84 45.625C30.84 47.3438 32.2463 48.75 33.965 48.75C35.6838 48.75 37.09 47.3438 37.09 45.625C37.09 43.9062 35.6838 42.5 33.965 42.5C33.8713 42.5 33.7825 42.4875 33.6912 42.5C33.6266 42.4898 33.5609 42.4898 33.4963 42.5H22.48L21.5825 38.75H35.3325C35.4626 38.7482 35.589 38.7057 35.6938 38.6287C35.7987 38.5516 35.8769 38.4437 35.9175 38.32L39.5513 26.3288C39.5833 26.2323 39.5913 26.1294 39.5747 26.0291C39.558 25.9288 39.5171 25.8341 39.4555 25.7532C39.3939 25.6723 39.3135 25.6076 39.2213 25.5648C39.1291 25.522 39.0278 25.5023 38.9263 25.5075H38.6512L38.8088 25.235C39.59 25.3032 40.3689 25.0806 40.9963 24.61C41.6413 24.1225 42.0938 23.4075 42.2463 22.6562H43.4175C43.9475 22.6562 44.4513 22.8713 44.8238 23.2425C45.1988 23.6138 45.4112 24.0863 45.4112 24.6087C45.4112 24.7745 45.4771 24.9335 45.5943 25.0507C45.7115 25.1679 45.8705 25.2337 46.0362 25.2337C46.202 25.2337 46.361 25.1679 46.4782 25.0507C46.5954 24.9335 46.6612 24.7745 46.6612 24.6087C46.6612 23.7525 46.3312 22.9487 45.7237 22.3438C45.1084 21.7399 44.2797 21.403 43.4175 21.4062H42.2463C42.2025 21.1787 42.1063 20.9613 42.0113 20.7425C41.8336 20.3205 41.5673 19.9416 41.2305 19.6314C40.8936 19.3213 40.494 19.0872 40.0588 18.945L39.6287 15.5863C39.6167 15.4578 39.5652 15.3362 39.4812 15.2381C39.3973 15.1401 39.2851 15.0704 39.16 15.0387L32.4412 13.2425L22.3237 10.5475C22.2634 10.5316 22.2011 10.5249 22.1388 10.5275H22.1375ZM22.5975 11.9113L32.09 14.4513L35.3325 15.31H21.66L22.5975 11.9113ZM37.0513 15.7788L38.4175 16.13L38.77 18.7475L37.0513 15.7788ZM19.6287 16.56H36.075L39.1625 21.9513V21.9888C39.1609 22.015 39.1609 22.0413 39.1625 22.0675L38.185 23.7862C38.0462 23.7233 37.915 23.6448 37.7938 23.5525C37.677 23.4617 37.5721 23.3567 37.4813 23.24C37.7749 22.9038 37.9409 22.475 37.95 22.0287C37.95 21.4287 37.645 20.8975 37.2088 20.545C37.175 20.5008 37.1355 20.4613 37.0913 20.4275C37.0688 20.4125 37.0363 20.4025 37.0125 20.3888C36.9876 20.3736 36.9617 20.3603 36.935 20.3487C36.6478 20.1916 36.3249 20.1111 35.9975 20.115C35.5019 20.1329 35.0326 20.3424 34.6883 20.6993C34.3441 21.0563 34.1517 21.5328 34.1517 22.0287C34.1517 22.5247 34.3441 23.0012 34.6883 23.3582C35.0326 23.7151 35.5019 23.9246 35.9975 23.9425C36.1425 23.9425 36.29 23.93 36.4275 23.9037C36.5962 24.1412 36.7775 24.34 37.0125 24.5287C37.18 24.6625 37.375 24.7837 37.56 24.88L37.2088 25.505H19.6287V16.56ZM22.48 18.3962C21.635 18.3962 21.1925 18.8837 21.1925 19.7638C21.1925 21.3337 22.91 21.5625 22.91 22.6925C22.91 23.085 22.7175 23.24 22.4412 23.24C22.165 23.24 22.0112 23.085 22.0112 22.6925V22.3025H21.1912V22.6537C21.1912 23.5325 21.6275 24.0212 22.48 24.0212C23.3337 24.0212 23.77 23.5337 23.77 22.6537C23.77 21.0837 22.0513 20.8538 22.0513 19.7238C22.0513 19.3313 22.2425 19.1775 22.52 19.1775C22.795 19.1775 22.9487 19.3313 22.9487 19.7238V19.9587H23.77V19.7638C23.77 18.8837 23.325 18.3962 22.48 18.3962ZM24.9025 18.4738L24.0425 23.9425H24.8237L24.98 22.9662H26.035L26.1912 23.9425H27.0513L26.1912 18.4738H24.9025ZM27.48 18.4738V23.9425H29.7463V23.1612H28.34V18.4738H27.48ZM30.1362 18.4738V23.9425H32.52V23.1612H30.995V21.56H32.2075V20.7787H30.995V19.255H32.52V18.4738H30.1362ZM25.4888 19.4513L25.9175 22.2237H25.0975L25.4888 19.4513ZM40.2537 20.4662C40.52 20.6675 40.7388 20.925 40.8787 21.2475C41.2412 22.085 40.985 23.0387 40.2537 23.5912C40.0432 23.7419 39.8042 23.8482 39.5513 23.9037L40.4488 22.3412C40.5036 22.2462 40.5325 22.1385 40.5325 22.0287C40.5325 21.919 40.5036 21.8113 40.4488 21.7162L40.3713 21.5987L40.2537 20.4662ZM35.8787 21.365C35.7887 21.8025 35.8275 22.2625 35.9175 22.6925C35.754 22.6767 35.6026 22.5994 35.494 22.4761C35.3853 22.3529 35.3276 22.193 35.3325 22.0287C35.3325 21.6912 35.5525 21.4187 35.8787 21.365ZM18.6912 26.755H38.105L37.5588 28.5138H25.4487V29.7638H37.2075L36.66 31.5212H27.4412V32.7712H36.3088L35.7612 34.49H29.4338V35.74H35.41L34.8638 37.4975H21.27L18.6912 26.755ZM22.715 43.7475C23.7575 43.7475 24.59 44.5788 24.59 45.6225C24.59 46.6663 23.7575 47.4975 22.715 47.4975C21.6725 47.4975 20.84 46.6663 20.84 45.6225C20.84 44.5788 21.6725 43.7475 22.715 43.7475ZM33.965 43.7475C35.0075 43.7475 35.84 44.5788 35.84 45.6225C35.84 46.6663 35.0075 47.4975 33.965 47.4975C32.9225 47.4975 32.09 46.6663 32.09 45.6225C32.09 44.5788 32.9225 43.7475 33.965 43.7475ZM22.715 44.3337C22.0088 44.3337 21.465 44.8775 21.465 45.5837C21.465 46.29 22.0088 46.8337 22.715 46.8337C23.4213 46.8337 23.965 46.29 23.965 45.5837C23.965 44.8775 23.4213 44.3337 22.715 44.3337ZM33.965 44.3337C33.2588 44.3337 32.715 44.8775 32.715 45.5837C32.715 46.29 33.2588 46.8337 33.965 46.8337C34.6712 46.8337 35.215 46.29 35.215 45.5837C35.215 44.8775 34.6712 44.3337 33.965 44.3337Z" fill="#007E5F"/>
</g>
<defs>
<clipPath id="clip0_20_85">
<rect width="60" height="60" fill="white"/>
</clipPath>
</defs>
</svg>
