<svg width="44" height="44" viewBox="0 0 44 44" fill="none" xmlns="http://www.w3.org/2000/svg">
<path d="M24.1808 35.3437L25.0226 32.596C25.1617 32.1423 24.9064 31.6616 24.4527 31.5226C23.9982 31.3836 23.5183 31.6388 23.3792 32.0925L22.6536 34.461H21.3464L20.6208 32.0925C20.4818 31.6388 20.0016 31.3836 19.5474 31.5226C19.0936 31.6616 18.8384 32.1423 18.9774 32.596L19.8193 35.3437L18.5882 40.2681C18.5149 40.561 18.6008 40.8708 18.8142 41.0842L21.3924 43.6624C21.7281 43.998 22.272 43.9979 22.6078 43.6624L25.1859 41.0842C25.3993 40.8708 25.4851 40.561 25.4119 40.2681L24.1808 35.3437ZM22 41.8393L20.3736 40.2129L21.382 36.1797H22.6182L23.6265 40.213L22 41.8393Z" fill="#00A951"/>
<path d="M34.3476 27.8873L25.8672 26.8273V24.9954C28.9131 23.5446 31.0234 20.4361 31.0234 16.8438V10.8281C31.0234 10.3535 30.6386 9.96875 30.1641 9.96875C29.6895 9.96875 29.3047 10.3535 29.3047 10.8281V16.8438C29.3047 20.8716 26.0278 24.1484 22 24.1484C17.9789 24.1484 14.6953 20.8957 14.6953 16.8438V10.8281C14.6953 10.3535 14.3105 9.96875 13.8359 9.96875C13.3614 9.96875 12.9766 10.3535 12.9766 10.8281V16.8438C12.9766 20.5035 15.138 23.5797 18.1328 25.0016V26.8272L9.6525 27.8872C6.6483 28.2624 4.38281 30.8288 4.38281 33.8568V43.0547C4.38281 43.5292 4.76764 43.9141 5.24219 43.9141H10.8281C11.3027 43.9141 11.6875 43.5292 11.6875 43.0547C11.6875 42.5801 11.3027 42.1953 10.8281 42.1953H6.10156V33.8568C6.10156 31.6939 7.71968 29.8608 9.86563 29.5928L15.1241 28.9355L16.8939 33.8906C17.0759 34.4007 17.6803 34.6174 18.1453 34.3385L22 32.0256L25.8547 34.3385C26.3188 34.6169 26.9237 34.4018 27.1061 33.8906L28.8759 28.9355L34.1345 29.5928C36.2803 29.8608 37.8984 31.6939 37.8984 33.8568V42.1953H14.2656C13.7911 42.1953 13.4062 42.5801 13.4062 43.0547C13.4062 43.5292 13.7911 43.9141 14.2656 43.9141H38.7578C39.2324 43.9141 39.6172 43.5292 39.6172 43.0547V33.8568C39.6172 30.8287 37.3517 28.2624 34.3476 27.8873ZM24.1484 25.6081V27.2631L22 29.7184L19.8516 27.2631V25.6107C21.2475 25.9502 22.7291 25.956 24.1484 25.6081ZM18.1598 32.3253L16.8711 28.7171L18.6459 28.4952L20.6761 30.8156L18.1598 32.3253ZM25.8402 32.3253L23.3239 30.8156L25.3541 28.4952L27.1289 28.7171L25.8402 32.3253Z" fill="#00A951"/>
<path fill-rule="evenodd" clip-rule="evenodd" d="M36.1797 36.1797C36.1797 36.6542 35.7949 37.0391 35.3203 37.0391H30.1641C29.6895 37.0391 29.3047 36.6542 29.3047 36.1797V32.7422C29.3047 32.2676 29.6895 31.8828 30.1641 31.8828H35.3203C35.7949 31.8828 36.1797 32.2676 36.1797 32.7422V36.1797ZM34.4609 33.6016H31.0234V35.3203H34.4609V33.6016ZM14.6953 32.7422V36.1797C14.6953 36.6542 14.3105 37.0391 13.8359 37.0391H8.67969C8.20514 37.0391 7.82031 36.6542 7.82031 36.1797V32.7422C7.82031 32.2676 8.20514 31.8828 8.67969 31.8828H13.8359C14.3105 31.8828 14.6953 32.2676 14.6953 32.7422ZM9.53906 35.3203H12.9766V33.6016H9.53906V35.3203Z" fill="#00A951"/>
<path d="M32.7422 7.82031C32.7422 6.5157 31.9243 4.97045 30.4984 3.58084C26.9844 1.03125 29.6143 3.25669 29.283 3.59657C28.9517 3.93645 26.2109 2.57812 29.2988 4.81181C30.3626 5.84848 31.0234 7.00124 31.0234 7.82031C31.0234 8.01539 31.0233 8.54743 30.1734 9.08394C29.0516 8.05604 26.9788 7.43703 24.9354 7.15533C24.9829 6.89846 25.0078 6.63446 25.0078 6.36573V5.24219C25.0078 4.76755 24.623 4.38281 24.1484 4.38281H19.8516C19.377 4.38281 18.9922 4.76755 18.9922 5.24219V6.36573C18.9922 6.63446 19.0171 6.89846 19.0646 7.15533C17.0211 7.43703 14.9484 8.05604 13.8266 9.08394C12.9767 8.54743 12.9766 8.01539 12.9766 7.82031C12.9766 5.81393 16.8776 1.80469 22 1.80469C23.5913 1.80469 25.222 2.20859 26.7159 2.97284C29.9492 5.24219 29.3464 4.3328 29.5625 3.91016C29.7787 3.4876 30.6797 3.58084 27.4985 1.44263C25.7635 0.55507 23.8622 0.0859375 22 0.0859375C19.3397 0.0859375 16.6704 1.02343 14.484 2.72568C12.494 4.27496 11.2578 6.22712 11.2578 7.82031C11.2578 8.63612 11.5785 9.73027 12.9907 10.5871C12.9816 10.666 12.9766 10.7462 12.9766 10.8281C12.9766 13.367 17.5159 14.6953 22 14.6953C26.4841 14.6953 31.0234 13.367 31.0234 10.8281C31.0234 10.7462 31.0184 10.666 31.0093 10.5871C32.4215 9.73027 32.7422 8.63612 32.7422 7.82031ZM20.7109 6.10156H23.2891V6.36573C23.2891 7.28518 22.8 8.13304 22 8.58756C21.2161 8.14215 20.7109 7.30305 20.7109 6.36573V6.10156ZM22 12.9766C17.4686 12.9766 14.6953 11.5855 14.6953 10.8281C14.6953 10.7699 14.715 10.7053 14.7525 10.6363C14.7622 10.6215 14.7706 10.6057 14.7794 10.5903C15.1577 10.0036 16.8175 9.12424 19.7491 8.8018C20.2159 9.47624 20.8783 10.0161 21.6807 10.337C21.8855 10.4189 22.1141 10.419 22.3191 10.337C23.1215 10.016 23.7839 9.47624 24.2508 8.8018C27.1823 9.12424 28.8422 10.0036 29.2205 10.5902C29.2294 10.6057 29.2378 10.6216 29.2475 10.6364C29.285 10.7054 29.3047 10.7699 29.3047 10.8282C29.3047 11.5855 26.5314 12.9766 22 12.9766Z" fill="#00A951"/>
</svg>
