<svg width="44" height="44" viewBox="0 0 44 44" fill="none" xmlns="http://www.w3.org/2000/svg">
<path d="M2.11892 24.4112H5.87023V27.637C5.87023 28.38 6.47492 28.9847 7.21852 28.9847H15.9198L19.2701 32.1847L9.53543 41.4819H5.91235C5.65212 41.4819 5.44092 41.6931 5.44092 41.9534C5.44092 42.2136 5.65212 42.4248 5.91235 42.4248C5.97709 42.4248 37.9921 42.4248 37.9293 42.4248C38.1895 42.4248 38.4007 42.2136 38.4007 41.9534C38.4007 41.6931 38.1895 41.4819 37.9293 41.4819H34.4137L24.6796 32.1866L32.8202 24.4118H41.8321C42.2199 24.4118 42.5361 24.0931 42.5361 23.7015V20.8598C42.5361 20.465 42.2268 20.1558 41.8321 20.1558H37.5722C37.6093 20.0338 37.6351 19.9075 37.6351 19.7736V18.5944L39.1864 17.0984C39.6666 16.6351 39.9413 15.9871 39.9413 15.3208V15.1875H40.5385C41.0815 15.1875 41.5347 14.7978 41.6165 14.2604L42.5725 7.95772C42.6203 7.64406 42.5291 7.32537 42.3223 7.084C42.1149 6.84263 41.8132 6.70435 41.4958 6.70435H39.9319C39.8803 5.38749 38.8011 4.33023 37.4723 4.33023H29.4995C21.851 4.33023 15.6131 10.4682 15.4427 18.0765C14.7042 18.3801 14.1818 19.1054 14.1818 19.9527V20.1564H2.11892C1.73109 20.1564 1.41492 20.4726 1.41492 20.8604V23.7022C1.41492 24.0931 1.73109 24.4112 2.11892 24.4112ZM39.9413 7.6472H41.4958C41.5549 7.6472 41.5907 7.67926 41.6077 7.69875C41.6234 7.7176 41.6498 7.75846 41.6416 7.81629L40.6855 14.119C40.6742 14.1919 40.6133 14.2447 40.5397 14.2447H39.9426V7.6472H39.9413ZM10.9001 41.4819L19.9515 32.8366L21.2929 34.1182L13.5828 41.4819H10.9001ZM14.9474 41.4819L21.9749 34.7701L29.0004 41.4819H14.9474ZM33.049 41.4819H30.3663L17.2845 28.9847H18.7735C19.101 28.9847 19.3971 28.8627 19.6309 28.6679L33.049 41.4819ZM20.103 27.8162C20.1111 27.7571 20.1212 27.6986 20.1212 27.6377V24.4118H27.4082L21.9736 29.6026L20.103 27.8162ZM23.9976 31.5348L22.6562 30.2538L28.7729 24.4118H31.4562L23.9976 31.5348ZM41.5932 21.0986V23.469C40.2103 23.469 21.2199 23.469 20.1212 23.469V21.0986H41.5932ZM29.4995 5.27246H37.4723C38.3139 5.27246 38.9991 5.9576 38.9991 6.79989V15.3208C38.9991 15.7325 38.8287 16.1335 38.5327 16.4195L36.9745 17.9231H16.3856C16.6345 10.9045 22.4218 5.27246 29.4995 5.27246ZM15.1241 19.9521C15.1241 19.3531 15.6112 18.8653 16.2109 18.8653H36.6922V19.773C36.6922 19.9829 36.5219 20.1533 36.3126 20.1533L34.8681 20.1551H15.1247L15.1241 19.9521ZM6.81309 23.9461C6.81309 23.9442 6.81435 23.9423 6.81435 23.9398C6.81435 23.9373 6.81309 23.936 6.81309 23.9335V21.0986H19.1783V27.6364C19.1783 27.6905 19.167 27.742 19.1475 27.7898C19.1457 27.7948 19.1419 27.7986 19.14 27.8036C19.0759 27.9431 18.937 28.0412 18.7742 28.0412H7.21789C6.99475 28.0412 6.81246 27.8595 6.81246 27.6364L6.81309 23.9461ZM2.35777 21.0986H5.87023V23.469H2.35777V21.0986Z" fill="#007E5F"/>
<path d="M36.5571 12.8348V9.63223C36.5571 8.44234 35.5897 7.47497 34.3998 7.47497H28.0066C26.1228 7.47497 24.3528 8.20725 23.0233 9.53668C21.7706 10.7894 21.0408 12.4539 20.9673 14.2239C20.9585 14.4213 21.0333 14.6181 21.1722 14.7626C21.3124 14.9078 21.5072 14.9914 21.7084 14.9914H34.3998C35.5897 14.9927 36.5571 14.0247 36.5571 12.8348ZM35.6142 12.8348C35.6142 13.5042 35.0699 14.0498 34.3998 14.0498H21.9221C22.0327 12.5966 22.6556 11.2382 23.6902 10.2042C24.8418 9.05268 26.3749 8.41845 28.0066 8.41845H34.4005C35.0699 8.41845 35.6149 8.9628 35.6149 9.63285L35.6142 12.8348ZM36.3101 15.7401H35.6501C35.3898 15.7401 35.1786 15.9513 35.1786 16.2115C35.1786 16.4717 35.3898 16.6829 35.6501 16.6829H36.3101C36.5703 16.6829 36.7815 16.4717 36.7815 16.2115C36.7815 15.9513 36.5709 15.7401 36.3101 15.7401ZM8.62401 14.9927C12.3232 14.9927 15.3328 11.9831 15.3328 8.28394C15.3328 4.5848 12.3225 1.5752 8.62401 1.5752C4.92549 1.5752 1.91589 4.5848 1.91589 8.28394C1.91589 11.9831 4.92487 14.9927 8.62401 14.9927ZM8.62401 2.51805C11.8033 2.51805 14.3899 5.10462 14.3899 8.28394C14.3899 11.4633 11.8033 14.0498 8.62401 14.0498C5.44469 14.0498 2.85875 11.4633 2.85875 8.28394C2.85875 5.10462 5.44469 2.51805 8.62401 2.51805Z" fill="#007E5F"/>
<path d="M10.8749 10.555C12.1157 9.31417 12.1157 7.2952 10.8749 6.05503C10.6908 5.87086 10.3922 5.87086 10.208 6.05503C10.0238 6.2392 10.0238 6.53777 10.208 6.72194C11.0811 7.59503 11.0811 9.0156 10.2086 9.88806C9.33367 10.7593 7.9131 10.7605 7.04064 9.88806C6.16441 9.0156 6.16441 7.59503 7.04064 6.72257C7.22481 6.53903 7.22607 6.24046 7.0419 6.05566C6.85773 5.87086 6.55916 5.87086 6.37499 6.0544C5.12601 7.29834 5.13104 9.31669 6.37436 10.555C7.61139 11.7914 9.62847 11.7945 10.8749 10.555Z" fill="#007E5F"/>
<path d="M8.62399 8.14566C8.88421 8.14566 9.09541 7.93446 9.09541 7.67423V4.94372C9.09541 4.68349 8.88421 4.47229 8.62399 4.47229C8.36376 4.47229 8.15256 4.68349 8.15256 4.94372V7.67486C8.15256 7.93509 8.36376 8.14566 8.62399 8.14566Z" fill="#007E5F"/>
</svg>
