<svg width="23" height="23" viewBox="0 0 23 23" fill="none" xmlns="http://www.w3.org/2000/svg">
<path d="M13.8277 1.83447H6.48976C6.00322 1.83447 5.53661 2.02775 5.19258 2.37178C4.84855 2.71581 4.65527 3.18242 4.65527 3.66896V18.3448C4.65527 18.8314 4.84855 19.298 5.19258 19.642C5.53661 19.986 6.00322 20.1793 6.48976 20.1793H17.4967C17.9832 20.1793 18.4498 19.986 18.7938 19.642C19.1379 19.298 19.3311 18.8314 19.3311 18.3448V7.33792L13.8277 1.83447Z" fill="#1D7FD9"/>
<path d="M14.7449 1.83447V7.33792H20.2483" stroke="white" stroke-width="2" stroke-linecap="round" stroke-linejoin="round"/>
<path d="M15.6622 11.9241H8.32422" stroke="white" stroke-width="2" stroke-linecap="round" stroke-linejoin="round"/>
<path d="M15.6622 15.593H8.32422" stroke="white" stroke-width="2" stroke-linecap="round" stroke-linejoin="round"/>
<path d="M10.1587 8.25513H9.24146H8.32422" stroke="white" stroke-width="2" stroke-linecap="round" stroke-linejoin="round"/>
</svg>
