<svg width="19" height="19" viewBox="0 0 19 19" fill="none" xmlns="http://www.w3.org/2000/svg">
<path d="M18.2434 13.6865V16.4382C18.2444 16.6937 18.1921 16.9465 18.0898 17.1806C17.9874 17.4147 17.8373 17.6248 17.6491 17.7975C17.4609 17.9702 17.2386 18.1016 16.9966 18.1835C16.7546 18.2653 16.4982 18.2957 16.2438 18.2727C13.4213 17.966 10.7101 17.0016 8.32803 15.4568C6.11182 14.0485 4.23286 12.1696 2.82459 9.95336C1.27444 7.56047 0.309743 4.83607 0.00866567 2.00089C-0.0142557 1.74724 0.0158889 1.4916 0.0971797 1.25025C0.17847 1.00889 0.309127 0.787099 0.480829 0.599002C0.652532 0.410906 0.861519 0.260622 1.09449 0.157719C1.32745 0.0548164 1.57929 0.00154947 1.83397 0.00130963H4.58569C5.03083 -0.00307151 5.46238 0.154561 5.7999 0.444825C6.13741 0.735089 6.35787 1.13818 6.42017 1.57896C6.53631 2.45957 6.75171 3.32422 7.06224 4.1564C7.18565 4.48471 7.21236 4.8415 7.1392 5.18452C7.06605 5.52754 6.89609 5.84239 6.64948 6.09178L5.48459 7.25667C6.79033 9.55302 8.69167 11.4544 10.988 12.7601L12.1529 11.5952C12.4023 11.3486 12.7172 11.1787 13.0602 11.1055C13.4032 11.0323 13.76 11.0591 14.0883 11.1825C14.9205 11.493 15.7851 11.7084 16.6657 11.8245C17.1113 11.8874 17.5182 12.1118 17.8091 12.4551C18.1 12.7984 18.2546 13.2367 18.2434 13.6865Z" fill="#1D7FD9"/>
</svg>
