<svg width="23" height="23" viewBox="0 0 23 23" fill="none" xmlns="http://www.w3.org/2000/svg">
<g clip-path="url(#clip0_1_2051)">
<path d="M2.15797 20.5462C2.05037 20.5462 1.94569 20.5038 1.86807 20.4256C1.76573 20.3226 1.72626 20.1729 1.76471 20.0331L3.01042 15.5039C2.23486 14.1075 1.82596 12.5279 1.82655 10.9245C1.82874 5.70983 6.09085 1.46753 11.3278 1.46753C13.8679 1.46855 16.2546 2.45369 18.0486 4.24114C19.8422 6.02875 20.8296 8.40498 20.8289 10.932C20.8265 16.1468 16.5644 20.3894 11.3278 20.3894C11.3278 20.3894 11.3238 20.3894 11.3237 20.3894C9.79407 20.3888 8.27761 20.0176 6.92737 19.3146L2.26133 20.5329C2.22712 20.5418 2.19232 20.5462 2.15797 20.5462Z" fill="#E5E5E5"/>
<path d="M0.794189 21.5455L2.2762 16.1336C1.36203 14.5496 0.881189 12.7528 0.88186 10.9121C0.884212 5.15352 5.57041 0.468506 11.3288 0.468506C14.1232 0.469682 16.7461 1.55734 18.7185 3.53145C20.6908 5.50555 21.7766 8.12963 21.7756 10.9205C21.7731 16.6789 17.0862 21.3646 11.3288 21.3646C11.3285 21.3646 11.329 21.3646 11.3288 21.3646H11.3243C9.57589 21.3639 7.85808 20.9254 6.33224 20.0932L0.794189 21.5455ZM6.5887 18.2026L6.90596 18.3905C8.23883 19.1815 9.76702 19.5999 11.3254 19.6007H11.3288C16.1144 19.6007 20.0096 15.7063 20.0116 10.9198C20.0124 8.60023 19.1102 6.41904 17.4708 4.77832C15.8313 3.1376 13.6514 2.23351 11.332 2.2325C6.54251 2.2325 2.64754 6.12647 2.64569 10.9128C2.64502 12.553 3.10386 14.1502 3.97318 15.5325L4.17976 15.861L3.30238 19.0641L6.5887 18.2026Z" fill="white"/>
<path d="M2.48413 19.8124L3.72817 15.2903C2.96063 13.9669 2.55715 12.4654 2.55758 10.9276C2.55948 6.11596 6.49312 2.20142 11.3263 2.20142C13.6721 2.20243 15.8738 3.11126 17.5291 4.76072C19.1848 6.41018 20.096 8.60273 20.0952 10.9344C20.0931 15.7461 16.1593 19.6611 11.3267 19.6611C11.3263 19.6611 11.3269 19.6611 11.3267 19.6611H11.3228C9.85533 19.6605 8.41328 19.2939 7.13259 18.5991L2.48413 19.8124Z" fill="#1D7FD9"/>
<path fill-rule="evenodd" clip-rule="evenodd" d="M8.71774 6.54604C8.52224 6.11138 8.31633 6.10264 8.13024 6.09508C7.97808 6.08853 7.80391 6.08887 7.63008 6.08887C7.45608 6.08887 7.17325 6.15437 6.93409 6.41554C6.69476 6.6767 6.02026 7.3082 6.02026 8.59253C6.02026 9.87703 6.95576 11.118 7.08625 11.2924C7.21675 11.4665 8.89207 14.1863 11.5452 15.2327C13.7502 16.1023 14.1988 15.9293 14.6775 15.8858C15.1562 15.8423 16.2218 15.2543 16.4393 14.6448C16.657 14.0353 16.657 13.513 16.5917 13.4037C16.5263 13.295 16.3523 13.2297 16.0913 13.0992C15.8303 12.9687 14.547 12.337 14.3077 12.25C14.0683 12.1629 13.8943 12.1195 13.7204 12.3809C13.5462 12.6419 13.0464 13.2297 12.894 13.4037C12.7417 13.5782 12.5894 13.6 12.3284 13.4693C12.0674 13.3385 11.2266 13.0631 10.2293 12.1738C9.45337 11.482 8.92936 10.6274 8.77702 10.3661C8.62486 10.1051 8.77451 9.97612 8.89174 9.83353C9.10285 9.57673 9.45706 9.11503 9.54406 8.94103C9.63106 8.7667 9.58756 8.61436 9.52239 8.4837C9.45706 8.3532 8.94968 7.06232 8.71774 6.54604Z" fill="white"/>
</g>
<defs>
<clipPath id="clip0_1_2051">
<rect width="22.0138" height="22.0138" fill="white" transform="translate(0.282715)"/>
</clipPath>
</defs>
</svg>
