<svg width="50" height="50" viewBox="0 0 50 50" fill="none" xmlns="http://www.w3.org/2000/svg">
<path fill-rule="evenodd" clip-rule="evenodd" d="M5 6C3.34315 6 2 7.34315 2 9.00001V40.6818C2 42.891 3.79086 44.6818 6 44.6818H19.2945H19.7727H25.7442C28.7923 44.6818 31.2727 42.2025 31.2727 39.1558V29.9458H27.5873C24.5393 29.9458 22.0588 27.4664 22.0588 24.4198C22.0588 21.3732 24.5393 18.8938 27.5873 18.8938H31.2727V11.526C31.2727 8.47934 28.7923 6 25.7442 6H19.7727H5.93388H5ZM37.2563 33.0385C36.5119 32.7467 36.0247 32.06 36.0247 31.2995V25.6543H28.0416C26.9398 25.6543 26.0455 24.8115 26.0455 23.7726C26.0455 22.7338 26.9398 21.891 28.0416 21.891H36.0247V16.2458C36.0247 15.4853 36.5119 14.7986 37.2563 14.5068C38.0025 14.2153 38.861 14.3772 39.4314 14.9154L47.4149 22.4423C48.1951 23.1779 48.1951 24.3673 47.4149 25.103L39.4314 32.6302C38.861 33.1681 38.0025 33.33 37.2563 33.0385Z" fill="#1DB4D9"/>
</svg>
