<svg width="49" height="44" viewBox="0 0 49 44" fill="none" xmlns="http://www.w3.org/2000/svg">
<path d="M16.1442 0.438965C10.7804 0.438965 6.4165 4.80283 6.4165 10.1667C6.4165 15.5306 10.7804 19.8944 16.1442 19.8944C21.5081 19.8944 25.872 15.5306 25.872 10.1667C25.872 4.80283 21.5081 0.438965 16.1442 0.438965Z" fill="#1DB4D9"/>
<path d="M16.2684 22.2292H15.9658C14.5154 22.2292 13.0834 22.4354 11.7095 22.8312L16.1455 29.6906L20.5763 22.839C19.1871 22.438 17.7376 22.2292 16.2684 22.2292Z" fill="#1DB4D9"/>
<path d="M31.5308 35.3001C30.7644 30.2591 27.5343 25.8716 22.8152 23.6765L17.3115 32.187V40.2837H32.2886L31.5308 35.3001Z" fill="#1DB4D9"/>
<path d="M9.47155 23.6687C4.72861 25.8773 1.51947 30.2902 0.757752 35.3L0 40.2837H14.9771V32.1821L9.47155 23.6687Z" fill="#1DB4D9"/>
<path d="M37.8277 42.0609H37.8294C39.9399 42.0609 42.003 41.4351 43.7578 40.2626C45.5126 39.0901 46.8802 37.4235 47.6879 35.4737C48.4955 33.5239 48.7068 31.3784 48.2951 29.3085C47.8834 27.2385 46.8671 25.3372 45.3748 23.8449C43.8824 22.3525 41.9811 21.3363 39.9112 20.9245C37.8413 20.5128 35.6957 20.7241 33.7459 21.5317C31.7961 22.3394 30.1295 23.7071 28.957 25.4619C27.7845 27.2167 27.1587 29.2797 27.1587 31.3902L27.1587 31.3919C27.1619 34.2205 28.287 36.9324 30.2871 38.9325C32.2872 40.9327 34.9991 42.0578 37.8277 42.0609Z" fill="#1DB4D9" stroke="white" stroke-width="3"/>
<path fill-rule="evenodd" clip-rule="evenodd" d="M43.4162 28.0003C43.8638 28.448 43.8638 29.1738 43.4162 29.6215L37.6367 35.4009C37.4217 35.6159 37.1301 35.7367 36.8261 35.7367C36.5221 35.7367 36.2305 35.6159 36.0155 35.4009L33.3885 32.7739C32.9408 32.3262 32.9408 31.6004 33.3885 31.1527C33.8362 30.7051 34.562 30.7051 35.0097 31.1527L36.8261 32.9692L41.795 28.0003C42.2427 27.5526 42.9685 27.5526 43.4162 28.0003Z" fill="white"/>
</svg>
