<svg width="46" height="46" viewBox="0 0 46 46" fill="none" xmlns="http://www.w3.org/2000/svg">
<g clip-path="url(#clip0_1_3081)">
<path d="M34.9387 28.1255C33.9113 27.8764 32.8764 28.5184 32.633 29.5476C32.3876 30.5768 33.0259 31.6099 34.0551 31.8533C40.0081 33.2659 42.1663 35.355 42.1663 36.4169C42.1663 38.7072 34.5228 42.1667 23 42.1667C11.4791 42.1667 3.83378 38.7072 3.83378 36.4169C3.83378 35.355 5.99385 33.2659 11.943 31.8533C12.9741 31.6099 13.6105 30.5768 13.3651 29.5476C13.1217 28.5184 12.0868 27.8763 11.0594 28.1255C3.92766 29.816 0.000488281 32.7599 0.000488281 36.4169C0.000488281 42.7072 11.5731 46 23 46C34.4289 46 45.9996 42.7072 45.9996 36.4169C45.9996 32.7599 42.0724 29.816 34.9387 28.1255Z" fill="#1DB4D9"/>
<path d="M23.0011 15.3351C24.0591 15.3351 24.9177 14.4765 24.9177 13.4186C24.9177 12.3606 24.0591 11.502 23.0011 11.502C21.9431 11.502 21.0845 12.3606 21.0845 13.4186C21.0845 14.4765 21.9431 15.3351 23.0011 15.3351Z" fill="#1DB4D9"/>
<path d="M20.5055 35.7143L21.2856 37.2744C21.6115 37.9241 22.2746 38.3342 23.001 38.3342C23.7273 38.3342 24.3905 37.9241 24.7163 37.2744L26.3684 33.9701C28.379 29.947 30.8591 26.0506 33.2568 22.2824L34.3492 20.5632C35.7024 18.4243 36.4173 15.9537 36.4173 13.418C36.4173 9.60006 34.7825 5.95077 31.9324 3.40555C29.0843 0.862212 25.253 -0.356675 21.4332 0.0918167C15.4686 0.770303 10.5429 5.57335 9.71683 11.5111C9.22809 15.03 10.1078 18.5241 12.1912 21.353C15.4418 25.7573 17.9794 30.6582 20.5055 35.7143ZM23.001 7.66819C26.171 7.66819 28.7508 10.248 28.7508 13.4181C28.7508 16.5882 26.171 19.168 23.001 19.168C19.8309 19.168 17.2511 16.5882 17.2511 13.4181C17.2511 10.248 19.8309 7.66819 23.001 7.66819Z" fill="#1DB4D9"/>
</g>
<defs>
<clipPath id="clip0_1_3081">
<rect width="46" height="46" fill="white"/>
</clipPath>
</defs>
</svg>
