<svg width="46" height="46" viewBox="0 0 46 46" fill="none" xmlns="http://www.w3.org/2000/svg">
<g clip-path="url(#clip0_1_3044)">
<path d="M10.8711 18.9562C4.8767 18.9562 0 23.7927 0 29.7374C0 37.0112 9.58521 45.3236 9.99319 45.6739C10.2457 45.8907 10.5584 45.9991 10.8711 45.9991C11.1858 45.9991 11.5005 45.8893 11.7537 45.6698C12.1579 45.3196 21.6523 37.0075 21.6523 29.7374C21.6523 23.7927 16.8158 18.9562 10.8711 18.9562ZM33.8711 18.9562C34.2453 18.9562 34.6027 18.8006 34.8576 18.5267C37.5174 15.6686 40.6094 9.89624 40.6094 6.73752C40.6094 3.02205 37.5866 -0.000732422 33.8711 -0.000732422C30.1557 -0.000732422 27.1329 3.02205 27.1329 6.73752C27.1329 9.89624 30.2248 15.6686 32.8847 18.5267C33.1395 18.8006 33.4969 18.9562 33.8711 18.9562ZM28.2329 32.1924C28.9449 32.4128 29.699 32.0133 29.9188 31.3034C30.1388 30.5924 29.7409 29.8376 29.0297 29.6176C27.8952 29.2665 27.1329 28.2315 27.1329 27.0438C27.133 26.9958 27.1341 26.948 27.1365 26.9004C27.174 26.1571 26.6019 25.524 25.8585 25.4865C25.1175 25.4483 24.4821 26.0211 24.4446 26.7644C24.44 26.855 24.4377 26.9479 24.4375 27.0421C24.4376 29.4201 25.9629 31.4898 28.2329 32.1924ZM29.8282 21.6515C29.4746 21.6515 29.1207 21.6861 28.7762 21.7544C28.0461 21.899 27.5715 22.6082 27.7161 23.3382C27.8608 24.0682 28.5697 24.543 29.3 24.3982C29.4724 24.3641 29.65 24.3467 29.8282 24.3467H34.3806C35.1248 24.3467 35.7282 23.7433 35.7282 22.9991C35.7282 22.2548 35.1248 21.6514 34.3806 21.6514H29.8282V21.6515ZM41.9571 21.6515H39.7283C38.984 21.6515 38.3807 22.2549 38.3807 22.9992C38.3807 23.7434 38.984 24.3468 39.7283 24.3468H41.9571C43.5604 24.3468 45.0135 23.3984 45.659 21.9306C45.9587 21.2493 45.6493 20.4541 44.9681 20.1544C44.2868 19.8547 43.4916 20.164 43.1919 20.8454C42.9765 21.3351 42.4918 21.6515 41.9571 21.6515ZM37.9141 17.6086C37.9141 18.3528 38.5175 18.9562 39.2617 18.9562H41.9571C42.7013 18.9562 43.3047 18.3528 43.3047 17.6086C43.3047 16.8643 42.7013 16.2609 41.9571 16.2609H39.2617C38.5175 16.2609 37.9141 16.8643 37.9141 17.6086ZM44.7191 33.4543C44.3164 32.8284 43.4827 32.6474 42.8567 33.0499C42.2306 33.4525 42.0496 34.2864 42.4522 34.9123C43.01 35.7796 43.3048 36.7862 43.3047 37.8233C43.3047 38.2254 43.2604 38.6274 43.1731 39.0183C42.9849 39.861 43.6271 40.66 44.4896 40.66C45.1068 40.66 45.6634 40.2332 45.8036 39.6058C45.9339 39.0224 46 38.4227 46 37.8234C46.0001 36.2682 45.5572 34.7573 44.7191 33.4543ZM40.7758 42.4567C39.9172 43.0109 38.9276 43.3038 37.9141 43.3038H36.3657C35.6215 43.3038 35.0181 43.9072 35.0181 44.6514C35.0181 45.3957 35.6215 45.9991 36.3657 45.9991H37.9141C39.4472 45.9991 40.9422 45.5572 42.2373 44.7213C42.8627 44.3177 43.0424 43.4836 42.6388 42.8582C42.2351 42.2328 41.4009 42.0532 40.7758 42.4567ZM39.0228 32.5467C39.7496 32.6985 40.4649 32.233 40.6174 31.5029C40.7695 30.7743 40.3021 30.0603 39.5736 29.9082C39.0309 29.7949 38.4727 29.7374 37.9141 29.7374H33.9607C33.2165 29.7374 32.6131 30.3408 32.6131 31.0851C32.6131 31.8293 33.2165 32.4327 33.9607 32.4327H37.9141C38.2878 32.4327 38.6608 32.471 39.0228 32.5467ZM20.3048 43.3038H17.6095C16.8652 43.3038 16.2618 43.9072 16.2618 44.6514C16.2618 45.3957 16.8652 45.9991 17.6095 45.9991H20.3048C21.0491 45.9991 21.6524 45.3957 21.6524 44.6514C21.6524 43.9072 21.0491 43.3038 20.3048 43.3038ZM31.0179 43.3038H25.6701C24.9259 43.3038 24.3225 43.9072 24.3225 44.6514C24.3225 45.3957 24.9259 45.9991 25.6701 45.9991H31.0179C31.7622 45.9991 32.3655 45.3957 32.3655 44.6514C32.3655 43.9072 31.7622 43.3038 31.0179 43.3038Z" fill="#1DB4D9"/>
<path d="M10.8711 24.3473C7.89869 24.3473 5.48047 26.7656 5.48047 29.7379C5.48047 32.7103 7.89869 35.1285 10.8711 35.1285C13.8435 35.1285 16.2617 32.7103 16.2617 29.7379C16.2617 26.7656 13.8435 24.3473 10.8711 24.3473ZM33.8712 5.39038C33.1269 5.39038 32.5235 5.99377 32.5235 6.73803C32.5235 7.48229 33.1269 8.08568 33.8712 8.08568C34.6154 8.08568 35.2188 7.48229 35.2188 6.73803C35.2188 5.99377 34.6154 5.39038 33.8712 5.39038Z" fill="white"/>
</g>
<defs>
<clipPath id="clip0_1_3044">
<rect width="46" height="46" fill="white"/>
</clipPath>
</defs>
</svg>
