<svg width="45" height="44" viewBox="0 0 45 44" fill="none" xmlns="http://www.w3.org/2000/svg">
<g clip-path="url(#clip0_1_3092)">
<path d="M39.6923 2.59016V0H20.299V2.6033H14.9218V12.4323C13.7145 11.9868 12.4073 11.7423 11.0424 11.7423C4.96627 11.7423 0.0229492 16.5758 0.0229492 22.5169C0.0229492 24.9505 1.66606 28.9405 5.04616 34.7147C7.4679 38.8515 9.92427 42.3921 9.94879 42.4274L11.0422 44L12.1357 42.4274C12.1554 42.399 13.7517 40.098 15.6371 37.0434H44.9809V2.60769L39.6923 2.59016Z" fill="#1DB4D9"/>
<path d="M11.0405 17.3455C8.12416 17.3455 5.75146 19.6653 5.75146 22.517C5.75146 25.3687 8.12416 27.6886 11.0405 27.6886C13.9569 27.6886 16.3296 25.3687 16.3296 22.517C16.3296 19.6653 13.957 17.3455 11.0405 17.3455ZM11.0405 25.1029C9.58226 25.1029 8.39583 23.9429 8.39583 22.5169C8.39583 21.091 9.58218 19.931 11.0405 19.931C12.4988 19.931 13.6853 21.091 13.6853 22.5169C13.6853 23.9429 12.4989 25.1029 11.0405 25.1029Z" fill="white"/>
<path d="M27.7884 21.377H22.5V23.9628H27.7884V21.377Z" fill="white"/>
<path d="M38.3709 21.377H33.0825V23.9628H38.3709V21.377Z" fill="white"/>
<path d="M27.7884 27.845H22.5V30.4308H27.7884V27.845Z" fill="white"/>
<path d="M38.3709 27.845H33.0825V30.4308H38.3709V27.845Z" fill="white"/>
<path d="M27.7884 8.44092H22.5V11.0268H27.7884V8.44092Z" fill="white"/>
<path d="M38.3709 8.44092H33.0825V11.0268H38.3709V8.44092Z" fill="white"/>
<path d="M27.7884 14.9089H22.5V17.4948H27.7884V14.9089Z" fill="white"/>
<path d="M38.3709 14.9089H33.0825V17.4948H38.3709V14.9089Z" fill="white"/>
</g>
<defs>
<clipPath id="clip0_1_3092">
<rect width="45" height="44" fill="white"/>
</clipPath>
</defs>
</svg>
